<svg xmlns="http://www.w3.org/2000/svg" xmlns:xlink="http://www.w3.org/1999/xlink" width="476" zoomAndPan="magnify" viewBox="0 0 357 142.499996" height="190" preserveAspectRatio="xMidYMid meet" version="1.0"><defs><g/><clipPath id="8f39784249"><path d="M 0.625 0 L 356.375 0 L 356.375 142 L 0.625 142 Z M 0.625 0 " clip-rule="nonzero"/></clipPath><clipPath id="e3f067fe07"><path d="M 38.109375 37.738281 L 91.171875 37.738281 L 91.171875 104.257812 L 38.109375 104.257812 Z M 38.109375 37.738281 " clip-rule="nonzero"/></clipPath><clipPath id="c3ffe50fc6"><path d="M 78.207031 45.09375 L 51.085938 45.09375 L 51.085938 37.757812 L 55.1875 37.757812 L 55.1875 40.980469 L 62.59375 40.980469 L 62.59375 37.761719 L 66.699219 37.761719 L 66.699219 40.980469 L 74.105469 40.980469 L 74.105469 37.757812 L 78.207031 37.757812 Z M 91.183594 49.210938 L 91.183594 78.238281 C 91.183594 83.171875 89.855469 87.972656 87.347656 92.125 C 84.894531 96.191406 81.417969 99.464844 77.304688 101.585938 C 76.636719 101.933594 75.957031 102.242188 75.296875 102.507812 C 74.019531 103.023438 72.6875 103.429688 71.324219 103.722656 C 71.066406 103.777344 70.71875 103.851562 70.339844 103.914062 C 69.054688 104.132812 67.710938 104.246094 66.351562 104.246094 L 62.929688 104.246094 C 61.578125 104.246094 60.238281 104.132812 58.953125 103.914062 C 58.609375 103.855469 58.285156 103.792969 57.960938 103.726562 C 56.621094 103.4375 55.285156 103.027344 54.011719 102.511719 C 53.3125 102.234375 52.632812 101.921875 51.992188 101.59375 C 47.878906 99.472656 44.402344 96.199219 41.945312 92.128906 C 39.4375 87.972656 38.109375 83.171875 38.109375 78.238281 L 38.109375 49.210938 Z M 87.082031 53.324219 L 42.210938 53.324219 L 42.210938 78.238281 C 42.210938 86.890625 46.972656 94.378906 53.867188 97.933594 C 54.410156 98.214844 54.964844 98.464844 55.53125 98.691406 C 56.589844 99.117188 57.6875 99.460938 58.820312 99.703125 C 59.089844 99.761719 59.359375 99.808594 59.632812 99.855469 C 60.707031 100.039062 61.8125 100.128906 62.929688 100.128906 L 66.351562 100.128906 C 67.480469 100.128906 68.585938 100.039062 69.660156 99.855469 C 69.933594 99.808594 70.203125 99.757812 70.472656 99.699219 C 71.605469 99.457031 72.703125 99.117188 73.761719 98.691406 C 74.328125 98.464844 74.882812 98.210938 75.425781 97.929688 C 82.324219 94.371094 87.082031 86.890625 87.082031 78.238281 Z M 55.53125 94.160156 L 55.53125 75.953125 L 46.316406 75.953125 L 46.316406 78.238281 C 46.316406 84.941406 49.925781 91.164062 55.53125 94.160156 Z M 62.929688 96.015625 L 66.351562 96.015625 C 67.460938 96.015625 68.554688 95.902344 69.601562 95.675781 L 69.613281 95.671875 L 69.628906 95.671875 C 69.640625 95.667969 69.648438 95.667969 69.660156 95.664062 L 69.660156 67.726562 L 59.632812 67.726562 L 59.632812 95.667969 C 59.648438 95.671875 59.664062 95.675781 59.683594 95.679688 C 60.738281 95.90625 61.832031 96.015625 62.929688 96.015625 Z M 82.976562 78.238281 L 82.976562 61.554688 L 73.761719 61.554688 L 73.761719 94.15625 C 79.367188 91.164062 82.976562 84.945312 82.976562 78.238281 Z M 82.976562 78.238281 " clip-rule="nonzero"/></clipPath><linearGradient x1="-31.821231" gradientTransform="matrix(0.240434, 0, 0, 0.241122, 38.109717, 37.759052)" y1="229.559459" x2="246.651091" gradientUnits="userSpaceOnUse" y2="37.658256" id="f116741a66"><stop stop-opacity="1" stop-color="rgb(90.59906%, 83.099365%, 61.999512%)" offset="0"/><stop stop-opacity="1" stop-color="rgb(90.59906%, 83.099365%, 61.999512%)" offset="0.125"/><stop stop-opacity="1" stop-color="rgb(90.560913%, 83.004761%, 61.84082%)" offset="0.140625"/><stop stop-opacity="1" stop-color="rgb(90.492249%, 82.830811%, 61.547852%)" offset="0.148438"/><stop stop-opacity="1" stop-color="rgb(90.429688%, 82.672119%, 61.280823%)" offset="0.15625"/><stop stop-opacity="1" stop-color="rgb(90.367126%, 82.514954%, 61.013794%)" offset="0.164062"/><stop stop-opacity="1" stop-color="rgb(90.304565%, 82.356262%, 60.745239%)" offset="0.171875"/><stop stop-opacity="1" stop-color="rgb(90.242004%, 82.197571%, 60.47821%)" offset="0.179688"/><stop stop-opacity="1" stop-color="rgb(90.177917%, 82.038879%, 60.211182%)" offset="0.1875"/><stop stop-opacity="1" stop-color="rgb(90.115356%, 81.880188%, 59.944153%)" offset="0.195313"/><stop stop-opacity="1" stop-color="rgb(90.052795%, 81.721497%, 59.677124%)" offset="0.203125"/><stop stop-opacity="1" stop-color="rgb(89.990234%, 81.562805%, 59.410095%)" offset="0.210938"/><stop stop-opacity="1" stop-color="rgb(89.927673%, 81.404114%, 59.143066%)" offset="0.21875"/><stop stop-opacity="1" stop-color="rgb(89.865112%, 81.245422%, 58.876038%)" offset="0.226562"/><stop stop-opacity="1" stop-color="rgb(89.801025%, 81.086731%, 58.607483%)" offset="0.234375"/><stop stop-opacity="1" stop-color="rgb(89.738464%, 80.92804%, 58.340454%)" offset="0.242188"/><stop stop-opacity="1" stop-color="rgb(89.675903%, 80.769348%, 58.073425%)" offset="0.25"/><stop stop-opacity="1" stop-color="rgb(89.613342%, 80.610657%, 57.806396%)" offset="0.257812"/><stop stop-opacity="1" stop-color="rgb(89.550781%, 80.451965%, 57.539368%)" offset="0.265625"/><stop stop-opacity="1" stop-color="rgb(89.48822%, 80.293274%, 57.272339%)" offset="0.273438"/><stop stop-opacity="1" stop-color="rgb(89.424133%, 80.134583%, 57.00531%)" offset="0.28125"/><stop stop-opacity="1" stop-color="rgb(89.361572%, 79.975891%, 56.738281%)" offset="0.289063"/><stop stop-opacity="1" stop-color="rgb(89.299011%, 79.8172%, 56.469727%)" offset="0.296875"/><stop stop-opacity="1" stop-color="rgb(89.23645%, 79.658508%, 56.202698%)" offset="0.304688"/><stop stop-opacity="1" stop-color="rgb(89.173889%, 79.499817%, 55.935669%)" offset="0.3125"/><stop stop-opacity="1" stop-color="rgb(89.111328%, 79.341125%, 55.66864%)" offset="0.320312"/><stop stop-opacity="1" stop-color="rgb(89.047241%, 79.182434%, 55.401611%)" offset="0.328125"/><stop stop-opacity="1" stop-color="rgb(88.98468%, 79.023743%, 55.134583%)" offset="0.335938"/><stop stop-opacity="1" stop-color="rgb(88.922119%, 78.865051%, 54.867554%)" offset="0.34375"/><stop stop-opacity="1" stop-color="rgb(88.859558%, 78.707886%, 54.600525%)" offset="0.351562"/><stop stop-opacity="1" stop-color="rgb(88.796997%, 78.549194%, 54.33197%)" offset="0.359375"/><stop stop-opacity="1" stop-color="rgb(88.734436%, 78.390503%, 54.064941%)" offset="0.367188"/><stop stop-opacity="1" stop-color="rgb(88.670349%, 78.231812%, 53.797913%)" offset="0.375"/><stop stop-opacity="1" stop-color="rgb(88.607788%, 78.07312%, 53.530884%)" offset="0.382812"/><stop stop-opacity="1" stop-color="rgb(88.545227%, 77.914429%, 53.263855%)" offset="0.390625"/><stop stop-opacity="1" stop-color="rgb(88.482666%, 77.755737%, 52.996826%)" offset="0.398438"/><stop stop-opacity="1" stop-color="rgb(88.420105%, 77.597046%, 52.729797%)" offset="0.40625"/><stop stop-opacity="1" stop-color="rgb(88.357544%, 77.438354%, 52.462769%)" offset="0.414063"/><stop stop-opacity="1" stop-color="rgb(88.293457%, 77.279663%, 52.194214%)" offset="0.421875"/><stop stop-opacity="1" stop-color="rgb(88.230896%, 77.120972%, 51.927185%)" offset="0.429688"/><stop stop-opacity="1" stop-color="rgb(88.168335%, 76.96228%, 51.660156%)" offset="0.4375"/><stop stop-opacity="1" stop-color="rgb(88.105774%, 76.803589%, 51.393127%)" offset="0.445312"/><stop stop-opacity="1" stop-color="rgb(88.043213%, 76.644897%, 51.126099%)" offset="0.453125"/><stop stop-opacity="1" stop-color="rgb(87.980652%, 76.486206%, 50.85907%)" offset="0.460938"/><stop stop-opacity="1" stop-color="rgb(87.916565%, 76.327515%, 50.592041%)" offset="0.462645"/><stop stop-opacity="1" stop-color="rgb(87.886047%, 76.248169%, 50.45929%)" offset="0.46875"/><stop stop-opacity="1" stop-color="rgb(87.854004%, 76.168823%, 50.325012%)" offset="0.476562"/><stop stop-opacity="1" stop-color="rgb(87.791443%, 76.010132%, 50.057983%)" offset="0.484375"/><stop stop-opacity="1" stop-color="rgb(87.728882%, 75.85144%, 49.789429%)" offset="0.492188"/><stop stop-opacity="1" stop-color="rgb(87.666321%, 75.692749%, 49.5224%)" offset="0.5"/><stop stop-opacity="1" stop-color="rgb(87.60376%, 75.534058%, 49.255371%)" offset="0.507812"/><stop stop-opacity="1" stop-color="rgb(87.539673%, 75.375366%, 48.988342%)" offset="0.515625"/><stop stop-opacity="1" stop-color="rgb(87.477112%, 75.216675%, 48.721313%)" offset="0.523438"/><stop stop-opacity="1" stop-color="rgb(87.414551%, 75.059509%, 48.454285%)" offset="0.53125"/><stop stop-opacity="1" stop-color="rgb(87.35199%, 74.900818%, 48.187256%)" offset="0.537355"/><stop stop-opacity="1" stop-color="rgb(87.321472%, 74.821472%, 48.054504%)" offset="0.539062"/><stop stop-opacity="1" stop-color="rgb(87.289429%, 74.742126%, 47.920227%)" offset="0.546875"/><stop stop-opacity="1" stop-color="rgb(87.226868%, 74.583435%, 47.651672%)" offset="0.554688"/><stop stop-opacity="1" stop-color="rgb(87.164307%, 74.424744%, 47.384644%)" offset="0.5625"/><stop stop-opacity="1" stop-color="rgb(87.10022%, 74.266052%, 47.117615%)" offset="0.570312"/><stop stop-opacity="1" stop-color="rgb(87.037659%, 74.107361%, 46.850586%)" offset="0.578125"/><stop stop-opacity="1" stop-color="rgb(86.975098%, 73.948669%, 46.583557%)" offset="0.585938"/><stop stop-opacity="1" stop-color="rgb(86.912537%, 73.789978%, 46.316528%)" offset="0.59375"/><stop stop-opacity="1" stop-color="rgb(86.849976%, 73.631287%, 46.0495%)" offset="0.601562"/><stop stop-opacity="1" stop-color="rgb(86.787415%, 73.472595%, 45.782471%)" offset="0.609375"/><stop stop-opacity="1" stop-color="rgb(86.723328%, 73.313904%, 45.513916%)" offset="0.617188"/><stop stop-opacity="1" stop-color="rgb(86.660767%, 73.155212%, 45.246887%)" offset="0.625"/><stop stop-opacity="1" stop-color="rgb(86.598206%, 72.996521%, 44.979858%)" offset="0.632812"/><stop stop-opacity="1" stop-color="rgb(86.535645%, 72.83783%, 44.71283%)" offset="0.640625"/><stop stop-opacity="1" stop-color="rgb(86.473083%, 72.679138%, 44.445801%)" offset="0.648438"/><stop stop-opacity="1" stop-color="rgb(86.410522%, 72.520447%, 44.178772%)" offset="0.65625"/><stop stop-opacity="1" stop-color="rgb(86.346436%, 72.361755%, 43.911743%)" offset="0.664062"/><stop stop-opacity="1" stop-color="rgb(86.283875%, 72.203064%, 43.644714%)" offset="0.671875"/><stop stop-opacity="1" stop-color="rgb(86.221313%, 72.044373%, 43.37616%)" offset="0.679687"/><stop stop-opacity="1" stop-color="rgb(86.158752%, 71.885681%, 43.109131%)" offset="0.6875"/><stop stop-opacity="1" stop-color="rgb(86.096191%, 71.72699%, 42.842102%)" offset="0.695312"/><stop stop-opacity="1" stop-color="rgb(86.03363%, 71.568298%, 42.575073%)" offset="0.703125"/><stop stop-opacity="1" stop-color="rgb(85.969543%, 71.409607%, 42.308044%)" offset="0.710938"/><stop stop-opacity="1" stop-color="rgb(85.906982%, 71.252441%, 42.041016%)" offset="0.71875"/><stop stop-opacity="1" stop-color="rgb(85.844421%, 71.09375%, 41.773987%)" offset="0.726562"/><stop stop-opacity="1" stop-color="rgb(85.78186%, 70.935059%, 41.506958%)" offset="0.734375"/><stop stop-opacity="1" stop-color="rgb(85.719299%, 70.776367%, 41.238403%)" offset="0.742188"/><stop stop-opacity="1" stop-color="rgb(85.656738%, 70.617676%, 40.971375%)" offset="0.75"/><stop stop-opacity="1" stop-color="rgb(85.592651%, 70.458984%, 40.704346%)" offset="0.757812"/><stop stop-opacity="1" stop-color="rgb(85.53009%, 70.300293%, 40.437317%)" offset="0.765625"/><stop stop-opacity="1" stop-color="rgb(85.467529%, 70.141602%, 40.170288%)" offset="0.773438"/><stop stop-opacity="1" stop-color="rgb(85.404968%, 69.98291%, 39.903259%)" offset="0.78125"/><stop stop-opacity="1" stop-color="rgb(85.342407%, 69.824219%, 39.63623%)" offset="0.789062"/><stop stop-opacity="1" stop-color="rgb(85.279846%, 69.665527%, 39.369202%)" offset="0.796875"/><stop stop-opacity="1" stop-color="rgb(85.215759%, 69.506836%, 39.100647%)" offset="0.804688"/><stop stop-opacity="1" stop-color="rgb(85.153198%, 69.348145%, 38.833618%)" offset="0.8125"/><stop stop-opacity="1" stop-color="rgb(85.090637%, 69.189453%, 38.566589%)" offset="0.820312"/><stop stop-opacity="1" stop-color="rgb(85.028076%, 69.030762%, 38.299561%)" offset="0.828125"/><stop stop-opacity="1" stop-color="rgb(84.965515%, 68.87207%, 38.032532%)" offset="0.835938"/><stop stop-opacity="1" stop-color="rgb(84.902954%, 68.713379%, 37.765503%)" offset="0.84375"/><stop stop-opacity="1" stop-color="rgb(84.838867%, 68.554688%, 37.498474%)" offset="0.851562"/><stop stop-opacity="1" stop-color="rgb(84.776306%, 68.395996%, 37.231445%)" offset="0.859375"/><stop stop-opacity="1" stop-color="rgb(84.721375%, 68.257141%, 36.997986%)" offset="0.875"/><stop stop-opacity="1" stop-color="rgb(84.698486%, 68.199158%, 36.898804%)" offset="1"/></linearGradient></defs><g clip-path="url(#8f39784249)"><path fill="#ffffff" d="M 0.625 0 L 356.375 0 L 356.375 149.476562 L 0.625 149.476562 Z M 0.625 0 " fill-opacity="1" fill-rule="nonzero"/><path fill="#ffffff" d="M 0.625 0 L 356.375 0 L 356.375 142 L 0.625 142 Z M 0.625 0 " fill-opacity="1" fill-rule="nonzero"/></g><g fill="#ffffff" fill-opacity="1"><g transform="translate(102.589386, 72.150348)"><g><path d="M 1.585938 -5.636719 C 1.585938 -5.246094 1.878906 -2.527344 2.265625 -0.617188 C 3.855469 -0.292969 5.894531 0.324219 8.097656 0.324219 C 11.5625 0.324219 14.867188 -2.039062 14.867188 -5.605469 C 14.867188 -8.582031 11.691406 -10.429688 8.972656 -12.015625 C 6.640625 -13.378906 4.695312 -14.542969 4.695312 -16.875 C 4.695312 -18.429688 5.570312 -20.472656 8.226562 -20.472656 C 10.980469 -20.472656 12.566406 -17.457031 12.761719 -15.839844 C 12.859375 -15.742188 13.019531 -15.710938 13.117188 -15.710938 C 13.34375 -15.710938 13.832031 -15.839844 13.796875 -16.066406 C 13.734375 -16.941406 13.605469 -18.980469 13.34375 -20.664062 C 11.207031 -21.152344 10.460938 -21.574219 8.453125 -21.574219 C 5.214844 -21.574219 2.105469 -19.304688 2.105469 -15.871094 C 2.105469 -12.632812 5.28125 -10.753906 7.742188 -9.394531 C 10.882812 -7.675781 12.050781 -6.964844 12.050781 -4.730469 C 12.050781 -2.203125 10.269531 -0.777344 8.164062 -0.777344 C 4.277344 -0.777344 3.042969 -4.503906 2.785156 -5.734375 C 2.753906 -5.894531 2.65625 -6.023438 2.429688 -6.023438 C 2.136719 -6.023438 1.78125 -5.832031 1.585938 -5.636719 Z M 1.585938 -5.636719 "/></g></g></g><g fill="#ffffff" fill-opacity="1"><g transform="translate(118.845362, 72.150348)"><g><path d="M 1.585938 -10.625 C 1.585938 -5.214844 4.988281 -1.132812 9.492188 0 C 11.273438 0.484375 12.925781 1.394531 14.285156 2.234375 C 16.421875 3.5625 17.945312 4.40625 19.726562 4.40625 C 21.703125 4.40625 23.320312 3.691406 25.101562 2.753906 C 25.101562 2.722656 25.101562 2.6875 25.070312 2.65625 C 24.972656 2.527344 24.714844 2.429688 24.488281 2.429688 C 24.261719 2.492188 23.484375 2.625 22.1875 2.625 C 20.210938 2.625 19.144531 2.234375 17.328125 1.101562 C 16.714844 0.710938 15.96875 0.292969 15.09375 -0.128906 C 19.402344 -1.488281 22.640625 -5.667969 22.640625 -10.625 C 22.640625 -17.070312 17.78125 -21.605469 12.082031 -21.605469 C 6.382812 -21.605469 1.585938 -16.679688 1.585938 -10.625 Z M 4.792969 -11.335938 C 4.792969 -15.675781 6.738281 -20.503906 11.597656 -20.503906 C 16.617188 -20.503906 19.433594 -15.03125 19.433594 -10.007812 C 19.433594 -5.636719 17.457031 -0.777344 12.601562 -0.777344 C 7.578125 -0.777344 4.792969 -6.316406 4.792969 -11.335938 Z M 4.792969 -11.335938 "/></g></g></g><g fill="#ffffff" fill-opacity="1"><g transform="translate(143.035028, 72.150348)"><g><path d="M 0.9375 -20.503906 C 1.328125 -20.503906 3.078125 -20.339844 3.175781 -19.984375 C 3.335938 -19.46875 3.335938 -18.558594 3.335938 -17.589844 L 3.335938 -8.128906 C 3.335938 -5.539062 4.242188 -3.433594 5.734375 -2.007812 C 7.160156 -0.648438 9.167969 0.128906 11.5 0.128906 C 16.550781 0.128906 19.953125 -2.460938 19.953125 -8.941406 L 19.953125 -17.6875 C 19.953125 -18.917969 19.984375 -19.402344 20.277344 -19.886719 C 20.503906 -20.277344 22.414062 -20.535156 22.804688 -20.535156 C 22.964844 -20.890625 22.902344 -21.3125 22.804688 -21.476562 C 21.3125 -21.410156 20.828125 -21.3125 19.335938 -21.3125 C 17.914062 -21.3125 17.039062 -21.410156 15.742188 -21.476562 C 15.675781 -21.28125 15.644531 -20.761719 15.808594 -20.535156 C 16.324219 -20.535156 17.945312 -20.210938 18.140625 -19.886719 C 18.464844 -19.371094 18.464844 -18.820312 18.464844 -17.652344 L 18.464844 -8.875 C 18.367188 -3.304688 15.515625 -1.75 12.179688 -1.75 C 10.269531 -1.75 8.746094 -2.363281 7.742188 -3.628906 C 6.703125 -4.921875 6.15625 -6.898438 6.15625 -9.585938 L 6.15625 -17.589844 C 6.15625 -18.558594 6.15625 -19.46875 6.316406 -19.984375 C 6.414062 -20.339844 8.164062 -20.503906 8.550781 -20.503906 C 8.679688 -20.664062 8.714844 -21.28125 8.550781 -21.441406 C 7.222656 -21.378906 6.023438 -21.28125 4.761719 -21.28125 C 3.5 -21.28125 2.265625 -21.378906 0.9375 -21.441406 C 0.777344 -21.28125 0.808594 -20.664062 0.9375 -20.503906 Z M 0.9375 -20.503906 "/></g></g></g><g fill="#ffffff" fill-opacity="1"><g transform="translate(166.447506, 72.150348)"><g><path d="M -0.390625 0.0976562 C 1.101562 0.03125 1.585938 -0.0664062 3.078125 -0.0664062 C 4.503906 -0.0664062 4.921875 0.03125 6.21875 0.0976562 C 6.285156 -0.0976562 6.25 -0.746094 6.15625 -0.84375 C 5.894531 -0.84375 3.917969 -0.972656 3.917969 -1.75 C 3.917969 -2.171875 3.984375 -2.914062 4.371094 -4.050781 C 4.921875 -5.605469 5.832031 -8 5.832031 -8 C 5.832031 -8 5.925781 -8.097656 5.992188 -8.097656 C 7.449219 -8.195312 8.164062 -8.195312 9.492188 -8.195312 C 10.300781 -8.195312 11.855469 -8.226562 12.699219 -8.164062 C 12.792969 -8.164062 12.890625 -8.03125 12.890625 -8.03125 C 12.890625 -8.03125 15.09375 -2.6875 15.09375 -1.714844 C 15.09375 -1.523438 15.0625 -1.359375 14.964844 -1.261719 C 14.671875 -1.003906 13.539062 -0.84375 13.152344 -0.84375 C 12.988281 -0.679688 12.957031 -0.0664062 13.117188 0.0976562 C 14.609375 0.03125 15.386719 -0.0664062 16.875 -0.0664062 C 18.300781 -0.0664062 19.144531 0.03125 20.4375 0.0976562 C 20.472656 0 20.535156 -0.617188 20.375 -0.84375 C 20.113281 -0.84375 18.496094 -1.167969 18.171875 -1.945312 C 18.105469 -2.074219 17.816406 -2.882812 17.363281 -4.082031 L 10.753906 -21.378906 C 10.65625 -21.410156 10.65625 -21.476562 10.558594 -21.476562 C 10.269531 -21.476562 9.492188 -20.859375 9.328125 -20.535156 C 7.351562 -15.484375 3.078125 -4.503906 3.078125 -4.503906 C 2.625 -3.335938 2.203125 -2.300781 1.554688 -1.457031 C 1.230469 -1.035156 0 -0.84375 -0.390625 -0.84375 C -0.484375 -0.617188 -0.484375 0 -0.390625 0.0976562 Z M 6.445312 -9.652344 L 9.425781 -17.554688 L 12.277344 -9.71875 C 12.277344 -9.71875 12.242188 -9.554688 12.179688 -9.554688 C 11.175781 -9.492188 10.460938 -9.457031 9.457031 -9.457031 C 8.714844 -9.457031 7.351562 -9.492188 6.511719 -9.523438 C 6.445312 -9.523438 6.445312 -9.652344 6.445312 -9.652344 Z M 6.445312 -9.652344 "/></g></g></g><g fill="#ffffff" fill-opacity="1"><g transform="translate(186.751278, 72.150348)"><g><path d="M 1.457031 0.0976562 C 2.785156 0.03125 4.015625 -0.0664062 5.28125 -0.0664062 C 6.542969 -0.0664062 7.742188 0.03125 9.070312 0.0976562 C 9.230469 -0.0664062 9.199219 -0.679688 9.070312 -0.84375 C 8.679688 -0.84375 6.933594 -1.003906 6.835938 -1.359375 C 6.671875 -1.878906 6.671875 -2.785156 6.671875 -3.757812 L 6.671875 -9.78125 L 8.390625 -9.78125 C 8.84375 -9.78125 9.167969 -9.683594 9.359375 -9.394531 C 11.402344 -6.21875 14.027344 -2.363281 14.511719 -1.714844 C 15.289062 -0.710938 16.164062 -0.453125 16.617188 -0.292969 C 17.265625 -0.0664062 18.722656 0.0976562 20.890625 0.0976562 C 20.925781 0.03125 21.085938 -0.679688 20.925781 -0.84375 C 19.144531 -0.972656 18.203125 -1.554688 17.265625 -2.785156 C 15.125 -5.605469 13.765625 -7.546875 12.050781 -10.398438 C 14.21875 -11.144531 16.453125 -13.410156 16.453125 -15.742188 C 16.453125 -19.433594 12.828125 -21.347656 9.878906 -21.347656 C 7.96875 -21.347656 6.542969 -21.28125 5.28125 -21.28125 C 4.015625 -21.28125 2.785156 -21.378906 1.457031 -21.441406 C 1.296875 -21.28125 1.328125 -20.664062 1.457031 -20.503906 C 1.847656 -20.503906 3.59375 -20.339844 3.691406 -19.984375 C 3.855469 -19.46875 3.855469 -18.558594 3.855469 -17.589844 L 3.855469 -3.757812 C 3.855469 -2.785156 3.855469 -1.878906 3.691406 -1.359375 C 3.59375 -1.003906 1.847656 -0.84375 1.457031 -0.84375 C 1.328125 -0.679688 1.296875 -0.0664062 1.457031 0.0976562 Z M 6.671875 -10.785156 L 6.671875 -17.554688 C 6.671875 -18.527344 6.671875 -19.597656 6.835938 -19.984375 C 6.964844 -20.277344 8.066406 -20.308594 8.453125 -20.308594 C 12.050781 -20.308594 13.441406 -18.269531 13.441406 -15.449219 C 13.441406 -12.601562 10.949219 -10.785156 8.421875 -10.785156 Z M 6.671875 -10.785156 "/></g></g></g><g fill="#ffffff" fill-opacity="1"><g transform="translate(206.86076, 72.150348)"><g><path d="M 1.457031 0.0976562 C 2.722656 0.0976562 3.789062 0 5.3125 0 C 9.621094 0 12.828125 0.128906 16.359375 0.128906 C 16.585938 -1.296875 17.492188 -3.5 18.105469 -5.246094 C 18.007812 -5.34375 17.621094 -5.441406 17.296875 -5.441406 C 17.070312 -5.441406 16.875 -5.378906 16.84375 -5.246094 C 16.324219 -3.855469 15.839844 -2.589844 14.804688 -1.976562 C 13.894531 -1.425781 12.242188 -1.101562 10.722656 -1.101562 L 9.167969 -1.101562 C 7.804688 -1.101562 7.289062 -1.101562 6.867188 -1.425781 C 6.671875 -1.585938 6.671875 -3.175781 6.671875 -3.660156 L 6.671875 -9.816406 C 6.671875 -10.105469 8.097656 -10.105469 9.003906 -10.105469 C 10.234375 -10.105469 12.082031 -10.074219 12.4375 -9.847656 C 12.730469 -9.652344 12.859375 -9.554688 13.34375 -7.710938 C 13.410156 -7.546875 13.636719 -7.449219 13.863281 -7.449219 C 14.089844 -7.449219 14.316406 -7.515625 14.382812 -7.578125 L 14.382812 -13.703125 C 14.285156 -13.796875 14.058594 -13.863281 13.832031 -13.863281 C 13.605469 -13.863281 13.378906 -13.796875 13.34375 -13.636719 C 12.792969 -11.5 12.890625 -11.304688 9.78125 -11.304688 L 8.066406 -11.304688 C 7.351562 -11.304688 6.671875 -11.335938 6.671875 -11.5 L 6.671875 -17.554688 C 6.671875 -18.429688 6.671875 -19.335938 6.835938 -19.855469 C 6.933594 -20.179688 8.679688 -20.210938 9.070312 -20.210938 L 11.855469 -20.210938 C 13.570312 -20.210938 14.898438 -19.757812 15.613281 -17.167969 C 15.644531 -17.003906 15.839844 -16.941406 16.066406 -16.941406 C 16.292969 -16.941406 16.550781 -17.003906 16.648438 -17.101562 C 16.359375 -18.558594 15.9375 -19.886719 15.710938 -21.507812 C 12.179688 -21.507812 8.324219 -21.28125 5.28125 -21.28125 C 4.015625 -21.28125 2.785156 -21.378906 1.457031 -21.441406 C 1.296875 -21.28125 1.328125 -20.664062 1.457031 -20.503906 C 1.847656 -20.503906 3.59375 -20.339844 3.691406 -19.984375 C 3.855469 -19.46875 3.855469 -18.558594 3.855469 -17.589844 L 3.855469 -3.757812 C 3.855469 -2.785156 3.855469 -1.878906 3.691406 -1.359375 C 3.59375 -1.003906 1.847656 -0.84375 1.457031 -0.84375 C 1.328125 -0.679688 1.296875 -0.0664062 1.457031 0.0976562 Z M 1.457031 0.0976562 "/></g></g></g><g fill="#ffffff" fill-opacity="1"><g transform="translate(225.869234, 72.150348)"><g><path d="M 1.457031 0.0976562 L 8.90625 0.0976562 C 11.402344 0.0664062 14.15625 -0.355469 15.710938 -1.652344 C 17.296875 -2.980469 17.878906 -4.597656 17.878906 -6.445312 C 17.878906 -9.652344 14.707031 -11.597656 13.117188 -11.660156 C 13.019531 -11.726562 13.054688 -11.789062 13.117188 -11.824219 C 14.253906 -12.242188 16.390625 -14.027344 16.390625 -16.519531 C 16.390625 -20.210938 12.828125 -21.347656 9.878906 -21.347656 C 7.96875 -21.347656 6.542969 -21.28125 5.28125 -21.28125 C 4.015625 -21.28125 2.785156 -21.378906 1.457031 -21.441406 C 1.296875 -21.28125 1.328125 -20.664062 1.457031 -20.503906 C 1.847656 -20.503906 3.59375 -20.339844 3.691406 -19.984375 C 3.855469 -19.46875 3.855469 -18.558594 3.855469 -17.589844 L 3.855469 -3.757812 C 3.855469 -2.785156 3.855469 -1.878906 3.691406 -1.359375 C 3.59375 -1.003906 1.847656 -0.84375 1.457031 -0.84375 C 1.328125 -0.679688 1.296875 -0.0664062 1.457031 0.0976562 Z M 6.671875 -3.726562 L 6.671875 -10.753906 L 8.648438 -10.753906 C 13.636719 -10.753906 14.671875 -8.128906 14.671875 -5.699219 C 14.671875 -1.75 11.953125 -0.9375 9.523438 -0.9375 C 8.324219 -0.9375 7.449219 -1.003906 6.964844 -1.523438 C 6.738281 -1.75 6.671875 -3.273438 6.671875 -3.726562 Z M 6.671875 -11.984375 L 6.671875 -17.554688 C 6.671875 -18.527344 6.671875 -19.597656 6.835938 -19.984375 C 6.964844 -20.277344 8.066406 -20.308594 8.453125 -20.308594 C 11.464844 -20.308594 13.441406 -18.65625 13.441406 -15.773438 C 13.441406 -13.929688 12.308594 -11.984375 9.394531 -11.984375 Z M 6.671875 -11.984375 "/></g></g></g><g fill="#ffffff" fill-opacity="1"><g transform="translate(245.169151, 72.150348)"><g><path d="M -0.390625 0.0976562 C 1.101562 0.03125 1.585938 -0.0664062 3.078125 -0.0664062 C 4.503906 -0.0664062 4.921875 0.03125 6.21875 0.0976562 C 6.285156 -0.0976562 6.25 -0.746094 6.15625 -0.84375 C 5.894531 -0.84375 3.917969 -0.972656 3.917969 -1.75 C 3.917969 -2.171875 3.984375 -2.914062 4.371094 -4.050781 C 4.921875 -5.605469 5.832031 -8 5.832031 -8 C 5.832031 -8 5.925781 -8.097656 5.992188 -8.097656 C 7.449219 -8.195312 8.164062 -8.195312 9.492188 -8.195312 C 10.300781 -8.195312 11.855469 -8.226562 12.699219 -8.164062 C 12.792969 -8.164062 12.890625 -8.03125 12.890625 -8.03125 C 12.890625 -8.03125 15.09375 -2.6875 15.09375 -1.714844 C 15.09375 -1.523438 15.0625 -1.359375 14.964844 -1.261719 C 14.671875 -1.003906 13.539062 -0.84375 13.152344 -0.84375 C 12.988281 -0.679688 12.957031 -0.0664062 13.117188 0.0976562 C 14.609375 0.03125 15.386719 -0.0664062 16.875 -0.0664062 C 18.300781 -0.0664062 19.144531 0.03125 20.4375 0.0976562 C 20.472656 0 20.535156 -0.617188 20.375 -0.84375 C 20.113281 -0.84375 18.496094 -1.167969 18.171875 -1.945312 C 18.105469 -2.074219 17.816406 -2.882812 17.363281 -4.082031 L 10.753906 -21.378906 C 10.65625 -21.410156 10.65625 -21.476562 10.558594 -21.476562 C 10.269531 -21.476562 9.492188 -20.859375 9.328125 -20.535156 C 7.351562 -15.484375 3.078125 -4.503906 3.078125 -4.503906 C 2.625 -3.335938 2.203125 -2.300781 1.554688 -1.457031 C 1.230469 -1.035156 0 -0.84375 -0.390625 -0.84375 C -0.484375 -0.617188 -0.484375 0 -0.390625 0.0976562 Z M 6.445312 -9.652344 L 9.425781 -17.554688 L 12.277344 -9.71875 C 12.277344 -9.71875 12.242188 -9.554688 12.179688 -9.554688 C 11.175781 -9.492188 10.460938 -9.457031 9.457031 -9.457031 C 8.714844 -9.457031 7.351562 -9.492188 6.511719 -9.523438 C 6.445312 -9.523438 6.445312 -9.652344 6.445312 -9.652344 Z M 6.445312 -9.652344 "/></g></g></g><g fill="#ffffff" fill-opacity="1"><g transform="translate(265.472924, 72.150348)"><g><path d="M 1.328125 0.0976562 C 2.816406 0.03125 3.304688 -0.0664062 4.792969 -0.0664062 C 6.21875 -0.0664062 7.191406 0.03125 8.488281 0.0976562 C 8.550781 -0.0976562 8.582031 -0.617188 8.421875 -0.84375 C 7.902344 -0.84375 6.1875 -1.167969 5.992188 -1.488281 C 5.667969 -2.007812 5.667969 -2.558594 5.667969 -3.726562 L 5.667969 -18.429688 L 19.792969 -0.582031 C 20.246094 0 20.761719 0.160156 20.925781 0.160156 C 21.023438 0.160156 21.3125 0.128906 21.347656 -0.03125 C 21.28125 -1.714844 21.28125 -2.625 21.28125 -4.503906 L 21.28125 -17.6875 C 21.28125 -18.917969 21.3125 -19.402344 21.605469 -19.886719 C 21.832031 -20.277344 23.742188 -20.535156 24.132812 -20.535156 C 24.292969 -20.890625 24.230469 -21.3125 24.132812 -21.476562 C 22.640625 -21.410156 22.15625 -21.3125 20.664062 -21.3125 C 19.242188 -21.3125 18.234375 -21.410156 16.941406 -21.476562 C 16.875 -21.28125 16.84375 -20.761719 17.003906 -20.535156 C 17.523438 -20.535156 19.273438 -20.210938 19.46875 -19.886719 C 19.792969 -19.371094 19.792969 -18.820312 19.792969 -17.652344 L 19.792969 -5.378906 C 16.195312 -10.398438 8.746094 -18.851562 7.09375 -21.441406 C 6.640625 -21.410156 5.605469 -21.378906 4.632812 -21.378906 C 3.5625 -21.378906 2.816406 -21.476562 1.328125 -21.539062 C 1.230469 -21.378906 1.167969 -20.957031 1.328125 -20.601562 C 1.714844 -20.601562 3.628906 -20.339844 3.855469 -19.953125 C 4.144531 -19.46875 4.179688 -18.980469 4.179688 -17.75 L 4.179688 -3.691406 C 4.179688 -2.460938 4.144531 -1.976562 3.855469 -1.488281 C 3.628906 -1.101562 1.714844 -0.84375 1.328125 -0.84375 C 1.167969 -0.484375 1.230469 -0.0664062 1.328125 0.0976562 Z M 1.328125 0.0976562 "/></g></g></g><g fill="#ffffff" fill-opacity="1"><g transform="translate(290.60167, 72.150348)"><g><path d="M 1.457031 0.0976562 C 2.785156 0.03125 4.015625 -0.0664062 5.28125 -0.0664062 C 6.542969 -0.0664062 7.742188 0.03125 9.070312 0.0976562 C 9.230469 -0.0664062 9.199219 -0.777344 9.070312 -0.9375 C 8.679688 -0.9375 6.933594 -1.101562 6.835938 -1.457031 C 6.671875 -1.976562 6.671875 -2.882812 6.671875 -3.855469 L 6.671875 -9.878906 C 6.738281 -9.910156 6.867188 -9.945312 6.964844 -9.945312 C 7.09375 -9.945312 7.191406 -9.945312 7.253906 -9.847656 C 10.914062 -5.667969 13.863281 -2.332031 14.542969 -1.652344 C 15.449219 -0.746094 16.292969 -0.421875 16.746094 -0.257812 C 17.394531 -0.03125 19.175781 0.0976562 21.347656 0.0976562 C 21.378906 0.03125 21.539062 -0.679688 21.378906 -0.84375 C 19.597656 -0.972656 18.65625 -1.585938 17.847656 -2.332031 C 15.351562 -4.695312 12.664062 -7.902344 9.554688 -11.53125 C 9.492188 -11.628906 9.492188 -11.691406 9.554688 -11.789062 C 12.375 -14.511719 14.253906 -16.195312 17.039062 -19.242188 C 18.140625 -20.4375 19.953125 -20.40625 20.246094 -20.4375 C 20.40625 -20.4375 20.375 -21.25 20.308594 -21.441406 C 19.015625 -21.378906 18.234375 -21.25 16.8125 -21.25 C 15.613281 -21.25 14.285156 -21.378906 13.085938 -21.441406 C 12.988281 -21.152344 12.988281 -20.632812 13.085938 -20.4375 C 13.378906 -20.4375 14.898438 -20.535156 14.898438 -19.726562 C 14.898438 -19.402344 14.640625 -18.980469 14.445312 -18.722656 C 13.476562 -17.457031 12.859375 -16.8125 10.332031 -14.316406 C 9.003906 -13.019531 7.351562 -11.464844 6.671875 -11.046875 L 6.671875 -17.492188 C 6.671875 -18.464844 6.671875 -19.371094 6.835938 -19.886719 C 6.933594 -20.246094 8.679688 -20.40625 9.070312 -20.40625 C 9.199219 -20.570312 9.230469 -21.28125 9.070312 -21.441406 C 7.742188 -21.378906 6.542969 -21.28125 5.28125 -21.28125 C 4.015625 -21.28125 2.785156 -21.378906 1.457031 -21.441406 C 1.296875 -21.28125 1.328125 -20.570312 1.457031 -20.40625 C 1.847656 -20.40625 3.59375 -20.246094 3.691406 -19.886719 C 3.855469 -19.371094 3.855469 -18.464844 3.855469 -17.492188 L 3.855469 -3.855469 C 3.855469 -2.882812 3.855469 -1.976562 3.691406 -1.457031 C 3.59375 -1.101562 1.847656 -0.9375 1.457031 -0.9375 C 1.328125 -0.777344 1.296875 -0.0664062 1.457031 0.0976562 Z M 1.457031 0.0976562 "/></g></g></g><g fill="#e7d49e" fill-opacity="1"><g transform="translate(102.589386, 92.113797)"><g><path d="M 0.109375 0.046875 C 0.0351562 0.046875 -0.0234375 0.03125 -0.078125 0 C -0.128906 -0.0195312 -0.15625 -0.0546875 -0.15625 -0.109375 C -0.132812 -0.179688 -0.09375 -0.234375 -0.03125 -0.265625 C 0.03125 -0.296875 0.113281 -0.328125 0.21875 -0.359375 C 0.539062 -0.429688 0.785156 -0.546875 0.953125 -0.703125 C 1.117188 -0.867188 1.242188 -1.078125 1.328125 -1.328125 L 3.140625 -6.46875 C 3.242188 -6.75 3.285156 -6.976562 3.265625 -7.15625 C 3.242188 -7.34375 3.148438 -7.488281 2.984375 -7.59375 C 2.828125 -7.695312 2.585938 -7.757812 2.265625 -7.78125 C 2.140625 -7.789062 2.039062 -7.816406 1.96875 -7.859375 C 1.894531 -7.898438 1.859375 -7.957031 1.859375 -8.03125 C 1.859375 -8.101562 1.898438 -8.148438 1.984375 -8.171875 C 2.078125 -8.203125 2.15625 -8.21875 2.21875 -8.21875 C 2.425781 -8.21875 2.648438 -8.210938 2.890625 -8.203125 C 3.128906 -8.203125 3.375 -8.191406 3.625 -8.171875 C 3.875 -8.160156 4.101562 -8.15625 4.3125 -8.15625 C 4.40625 -8.15625 4.484375 -8.132812 4.546875 -8.09375 C 4.617188 -8.050781 4.671875 -7.988281 4.703125 -7.90625 L 7.3125 -2.234375 C 7.332031 -2.203125 7.359375 -2.160156 7.390625 -2.109375 C 7.421875 -2.066406 7.453125 -2.046875 7.484375 -2.046875 C 7.535156 -2.046875 7.59375 -2.113281 7.65625 -2.25 C 7.675781 -2.320312 7.710938 -2.445312 7.765625 -2.625 C 7.828125 -2.8125 7.894531 -3.03125 7.96875 -3.28125 C 8.050781 -3.53125 8.132812 -3.800781 8.21875 -4.09375 C 8.300781 -4.382812 8.382812 -4.675781 8.46875 -4.96875 C 8.550781 -5.257812 8.625 -5.53125 8.6875 -5.78125 C 8.75 -6.03125 8.800781 -6.242188 8.84375 -6.421875 C 8.9375 -6.867188 8.90625 -7.1875 8.75 -7.375 C 8.59375 -7.5625 8.296875 -7.691406 7.859375 -7.765625 C 7.679688 -7.785156 7.597656 -7.851562 7.609375 -7.96875 C 7.609375 -8.019531 7.644531 -8.0625 7.71875 -8.09375 C 7.800781 -8.125 7.882812 -8.140625 7.96875 -8.140625 C 8.257812 -8.140625 8.519531 -8.128906 8.75 -8.109375 C 8.976562 -8.085938 9.179688 -8.078125 9.359375 -8.078125 C 9.523438 -8.078125 9.675781 -8.082031 9.8125 -8.09375 C 9.957031 -8.101562 10.113281 -8.113281 10.28125 -8.125 C 10.445312 -8.144531 10.640625 -8.15625 10.859375 -8.15625 C 11.035156 -8.15625 11.125 -8.097656 11.125 -7.984375 C 11.125 -7.929688 11.078125 -7.882812 10.984375 -7.84375 C 10.890625 -7.800781 10.785156 -7.769531 10.671875 -7.75 C 10.472656 -7.726562 10.304688 -7.679688 10.171875 -7.609375 C 10.035156 -7.546875 9.921875 -7.429688 9.828125 -7.265625 C 9.734375 -7.109375 9.632812 -6.882812 9.53125 -6.59375 C 9.488281 -6.476562 9.429688 -6.304688 9.359375 -6.078125 C 9.285156 -5.847656 9.203125 -5.582031 9.109375 -5.28125 C 9.015625 -4.976562 8.910156 -4.660156 8.796875 -4.328125 C 8.679688 -3.992188 8.570312 -3.660156 8.46875 -3.328125 C 8.363281 -3.003906 8.265625 -2.703125 8.171875 -2.421875 C 8.085938 -2.140625 8.019531 -1.90625 7.96875 -1.71875 C 7.90625 -1.507812 7.878906 -1.347656 7.890625 -1.234375 C 7.898438 -1.128906 7.945312 -1 8.03125 -0.84375 C 8.070312 -0.757812 8.125 -0.679688 8.1875 -0.609375 C 8.25 -0.535156 8.3125 -0.472656 8.375 -0.421875 C 8.4375 -0.367188 8.488281 -0.320312 8.53125 -0.28125 C 8.582031 -0.25 8.609375 -0.203125 8.609375 -0.140625 C 8.609375 -0.078125 8.59375 -0.0351562 8.5625 -0.015625 C 8.53125 -0.00390625 8.476562 0 8.40625 0 C 8.207031 0 8.035156 0.00390625 7.890625 0.015625 C 7.753906 0.0234375 7.628906 0.0351562 7.515625 0.046875 C 7.410156 0.0664062 7.296875 0.0820312 7.171875 0.09375 C 6.972656 0.09375 6.820312 0.0507812 6.71875 -0.03125 C 6.613281 -0.125 6.519531 -0.269531 6.4375 -0.46875 C 6.332031 -0.6875 6.207031 -0.957031 6.0625 -1.28125 C 5.925781 -1.613281 5.773438 -1.972656 5.609375 -2.359375 C 5.453125 -2.753906 5.285156 -3.148438 5.109375 -3.546875 C 4.941406 -3.953125 4.78125 -4.332031 4.625 -4.6875 C 4.476562 -5.039062 4.34375 -5.351562 4.21875 -5.625 C 4.09375 -5.894531 3.992188 -6.097656 3.921875 -6.234375 C 3.890625 -6.285156 3.859375 -6.332031 3.828125 -6.375 C 3.796875 -6.414062 3.757812 -6.4375 3.71875 -6.4375 C 3.6875 -6.4375 3.648438 -6.40625 3.609375 -6.34375 C 3.566406 -6.28125 3.53125 -6.207031 3.5 -6.125 C 3.40625 -5.832031 3.289062 -5.488281 3.15625 -5.09375 C 3.019531 -4.695312 2.878906 -4.273438 2.734375 -3.828125 C 2.597656 -3.378906 2.46875 -2.9375 2.34375 -2.5 C 2.21875 -2.070312 2.113281 -1.675781 2.03125 -1.3125 C 1.957031 -1.039062 1.976562 -0.832031 2.09375 -0.6875 C 2.207031 -0.550781 2.429688 -0.441406 2.765625 -0.359375 C 2.859375 -0.347656 2.9375 -0.320312 3 -0.28125 C 3.0625 -0.238281 3.082031 -0.1875 3.0625 -0.125 C 3.050781 -0.0625 3.007812 -0.0195312 2.9375 0 C 2.863281 0.0195312 2.785156 0.03125 2.703125 0.03125 C 2.484375 0.03125 2.304688 0.0234375 2.171875 0.015625 C 2.046875 0.015625 1.929688 0.0078125 1.828125 0 C 1.734375 -0.0078125 1.617188 -0.015625 1.484375 -0.015625 C 1.304688 -0.015625 1.128906 -0.0078125 0.953125 0 C 0.773438 0.0078125 0.613281 0.0195312 0.46875 0.03125 C 0.320312 0.0390625 0.203125 0.046875 0.109375 0.046875 Z M 0.109375 0.046875 "/></g></g></g><g fill="#e7d49e" fill-opacity="1"><g transform="translate(112.310734, 92.113797)"><g><path d="M 1.578125 0.1875 C 1.367188 0.1875 1.148438 0.117188 0.921875 -0.015625 C 0.691406 -0.148438 0.5 -0.328125 0.34375 -0.546875 C 0.1875 -0.773438 0.109375 -1.015625 0.109375 -1.265625 C 0.109375 -1.742188 0.195312 -2.222656 0.375 -2.703125 C 0.5625 -3.191406 0.8125 -3.628906 1.125 -4.015625 C 1.445312 -4.410156 1.804688 -4.726562 2.203125 -4.96875 C 2.609375 -5.21875 3.023438 -5.34375 3.453125 -5.34375 C 3.867188 -5.34375 4.175781 -5.257812 4.375 -5.09375 C 4.570312 -4.925781 4.671875 -4.722656 4.671875 -4.484375 C 4.671875 -4.210938 4.582031 -3.972656 4.40625 -3.765625 C 4.226562 -3.566406 3.992188 -3.394531 3.703125 -3.25 C 3.421875 -3.113281 3.101562 -3 2.75 -2.90625 C 2.40625 -2.820312 2.078125 -2.742188 1.765625 -2.671875 C 1.722656 -2.660156 1.691406 -2.648438 1.671875 -2.640625 C 1.648438 -2.628906 1.628906 -2.601562 1.609375 -2.5625 C 1.578125 -2.457031 1.546875 -2.34375 1.515625 -2.21875 C 1.492188 -2.101562 1.476562 -1.992188 1.46875 -1.890625 C 1.46875 -1.597656 1.539062 -1.351562 1.6875 -1.15625 C 1.832031 -0.957031 2.046875 -0.859375 2.328125 -0.859375 C 2.585938 -0.859375 2.816406 -0.921875 3.015625 -1.046875 C 3.210938 -1.179688 3.394531 -1.34375 3.5625 -1.53125 C 3.65625 -1.613281 3.726562 -1.65625 3.78125 -1.65625 C 3.863281 -1.65625 3.90625 -1.613281 3.90625 -1.53125 C 3.90625 -1.507812 3.898438 -1.484375 3.890625 -1.453125 C 3.890625 -1.421875 3.878906 -1.398438 3.859375 -1.390625 C 3.703125 -1.097656 3.507812 -0.828125 3.28125 -0.578125 C 3.0625 -0.335938 2.804688 -0.148438 2.515625 -0.015625 C 2.234375 0.117188 1.921875 0.1875 1.578125 0.1875 Z M 1.84375 -3.0625 C 1.988281 -3.09375 2.160156 -3.140625 2.359375 -3.203125 C 2.554688 -3.265625 2.75 -3.351562 2.9375 -3.46875 C 3.125 -3.59375 3.28125 -3.738281 3.40625 -3.90625 C 3.53125 -4.070312 3.597656 -4.28125 3.609375 -4.53125 C 3.617188 -4.625 3.59375 -4.710938 3.53125 -4.796875 C 3.476562 -4.878906 3.394531 -4.921875 3.28125 -4.921875 C 3.113281 -4.921875 2.945312 -4.863281 2.78125 -4.75 C 2.613281 -4.632812 2.457031 -4.484375 2.3125 -4.296875 C 2.164062 -4.117188 2.039062 -3.925781 1.9375 -3.71875 C 1.84375 -3.507812 1.785156 -3.316406 1.765625 -3.140625 C 1.753906 -3.078125 1.78125 -3.050781 1.84375 -3.0625 Z M 1.84375 -3.0625 "/></g></g></g><g fill="#e7d49e" fill-opacity="1"><g transform="translate(116.896507, 92.113797)"><g><path d="M 0.390625 0.171875 C 0.203125 0.171875 0.0546875 0.113281 -0.046875 0 C -0.148438 -0.101562 -0.203125 -0.234375 -0.203125 -0.390625 C -0.203125 -0.503906 -0.171875 -0.625 -0.109375 -0.75 C -0.046875 -0.875 0.03125 -0.984375 0.125 -1.078125 C 0.226562 -1.171875 0.320312 -1.21875 0.40625 -1.21875 C 0.445312 -1.21875 0.488281 -1.191406 0.53125 -1.140625 C 0.570312 -1.097656 0.609375 -1.050781 0.640625 -1 C 0.671875 -0.9375 0.710938 -0.882812 0.765625 -0.84375 C 0.816406 -0.800781 0.878906 -0.78125 0.953125 -0.78125 C 1.023438 -0.78125 1.097656 -0.800781 1.171875 -0.84375 C 1.242188 -0.882812 1.320312 -0.945312 1.40625 -1.03125 C 1.507812 -1.144531 1.617188 -1.265625 1.734375 -1.390625 C 1.847656 -1.515625 1.957031 -1.640625 2.0625 -1.765625 C 2.175781 -1.898438 2.289062 -2.03125 2.40625 -2.15625 C 2.4375 -2.207031 2.453125 -2.253906 2.453125 -2.296875 C 2.460938 -2.335938 2.460938 -2.394531 2.453125 -2.46875 L 1.96875 -4.109375 C 1.945312 -4.179688 1.921875 -4.234375 1.890625 -4.265625 C 1.867188 -4.304688 1.832031 -4.328125 1.78125 -4.328125 C 1.707031 -4.328125 1.601562 -4.269531 1.46875 -4.15625 C 1.34375 -4.050781 1.195312 -3.898438 1.03125 -3.703125 C 1.019531 -3.671875 1 -3.640625 0.96875 -3.609375 C 0.9375 -3.585938 0.898438 -3.578125 0.859375 -3.578125 C 0.828125 -3.578125 0.800781 -3.585938 0.78125 -3.609375 C 0.757812 -3.640625 0.75 -3.679688 0.75 -3.734375 C 0.75 -3.890625 0.796875 -4.054688 0.890625 -4.234375 C 0.984375 -4.410156 1.101562 -4.582031 1.25 -4.75 C 1.394531 -4.914062 1.5625 -5.054688 1.75 -5.171875 C 1.945312 -5.285156 2.144531 -5.34375 2.34375 -5.34375 C 2.53125 -5.34375 2.671875 -5.269531 2.765625 -5.125 C 2.867188 -4.976562 2.957031 -4.789062 3.03125 -4.5625 L 3.375 -3.359375 C 3.394531 -3.242188 3.445312 -3.238281 3.53125 -3.34375 L 4.328125 -4.46875 C 4.535156 -4.75 4.738281 -4.960938 4.9375 -5.109375 C 5.144531 -5.265625 5.347656 -5.34375 5.546875 -5.34375 C 5.742188 -5.34375 5.914062 -5.265625 6.0625 -5.109375 C 6.207031 -4.960938 6.28125 -4.828125 6.28125 -4.703125 C 6.28125 -4.585938 6.242188 -4.46875 6.171875 -4.34375 C 6.109375 -4.226562 6.03125 -4.128906 5.9375 -4.046875 C 5.84375 -3.960938 5.757812 -3.921875 5.6875 -3.921875 C 5.601562 -3.921875 5.539062 -3.9375 5.5 -3.96875 C 5.46875 -4.007812 5.4375 -4.0625 5.40625 -4.125 C 5.363281 -4.207031 5.320312 -4.269531 5.28125 -4.3125 C 5.238281 -4.351562 5.175781 -4.375 5.09375 -4.375 C 5.019531 -4.375 4.925781 -4.34375 4.8125 -4.28125 C 4.707031 -4.226562 4.582031 -4.117188 4.4375 -3.953125 C 4.320312 -3.828125 4.195312 -3.675781 4.0625 -3.5 C 3.9375 -3.332031 3.804688 -3.144531 3.671875 -2.9375 C 3.640625 -2.875 3.613281 -2.804688 3.59375 -2.734375 C 3.570312 -2.671875 3.578125 -2.582031 3.609375 -2.46875 L 3.984375 -1.109375 C 4.023438 -0.972656 4.066406 -0.882812 4.109375 -0.84375 C 4.148438 -0.800781 4.203125 -0.78125 4.265625 -0.78125 C 4.347656 -0.78125 4.457031 -0.847656 4.59375 -0.984375 C 4.726562 -1.117188 4.867188 -1.320312 5.015625 -1.59375 C 5.066406 -1.675781 5.117188 -1.71875 5.171875 -1.71875 C 5.203125 -1.71875 5.226562 -1.703125 5.25 -1.671875 C 5.269531 -1.640625 5.28125 -1.582031 5.28125 -1.5 C 5.28125 -1.382812 5.238281 -1.234375 5.15625 -1.046875 C 5.070312 -0.859375 4.957031 -0.671875 4.8125 -0.484375 C 4.675781 -0.296875 4.515625 -0.140625 4.328125 -0.015625 C 4.148438 0.109375 3.957031 0.171875 3.75 0.171875 C 3.519531 0.171875 3.332031 0.09375 3.1875 -0.0625 C 3.050781 -0.226562 2.957031 -0.421875 2.90625 -0.640625 C 2.863281 -0.804688 2.820312 -0.992188 2.78125 -1.203125 C 2.738281 -1.410156 2.695312 -1.597656 2.65625 -1.765625 C 2.632812 -1.828125 2.609375 -1.863281 2.578125 -1.875 C 2.554688 -1.894531 2.519531 -1.875 2.46875 -1.8125 C 2.320312 -1.625 2.175781 -1.421875 2.03125 -1.203125 C 1.894531 -0.992188 1.75 -0.789062 1.59375 -0.59375 C 1.382812 -0.332031 1.175781 -0.140625 0.96875 -0.015625 C 0.757812 0.109375 0.566406 0.171875 0.390625 0.171875 Z M 0.390625 0.171875 "/></g></g></g><g fill="#e7d49e" fill-opacity="1"><g transform="translate(122.869267, 92.113797)"><g><path d="M 1.046875 0.171875 C 0.941406 0.171875 0.832031 0.132812 0.71875 0.0625 C 0.613281 -0.0078125 0.523438 -0.0976562 0.453125 -0.203125 C 0.390625 -0.304688 0.359375 -0.394531 0.359375 -0.46875 C 0.359375 -0.5625 0.367188 -0.644531 0.390625 -0.71875 C 0.421875 -0.800781 0.460938 -0.910156 0.515625 -1.046875 L 1.6875 -4.28125 C 1.726562 -4.382812 1.726562 -4.453125 1.6875 -4.484375 C 1.65625 -4.523438 1.613281 -4.546875 1.5625 -4.546875 L 0.984375 -4.578125 C 0.859375 -4.585938 0.78125 -4.613281 0.75 -4.65625 C 0.726562 -4.707031 0.71875 -4.753906 0.71875 -4.796875 C 0.71875 -4.816406 0.738281 -4.859375 0.78125 -4.921875 C 0.832031 -4.984375 0.898438 -5.039062 0.984375 -5.09375 C 1.066406 -5.144531 1.15625 -5.171875 1.25 -5.171875 L 1.796875 -5.171875 C 1.910156 -5.171875 1.988281 -5.1875 2.03125 -5.21875 C 2.070312 -5.257812 2.117188 -5.34375 2.171875 -5.46875 L 2.515625 -6.140625 C 2.566406 -6.242188 2.644531 -6.347656 2.75 -6.453125 C 2.851562 -6.566406 2.960938 -6.660156 3.078125 -6.734375 C 3.203125 -6.804688 3.304688 -6.84375 3.390625 -6.84375 C 3.492188 -6.84375 3.5625 -6.785156 3.59375 -6.671875 C 3.632812 -6.554688 3.632812 -6.445312 3.59375 -6.34375 L 3.28125 -5.40625 C 3.257812 -5.3125 3.265625 -5.25 3.296875 -5.21875 C 3.328125 -5.1875 3.382812 -5.171875 3.46875 -5.171875 C 3.59375 -5.171875 3.726562 -5.160156 3.875 -5.140625 C 4.019531 -5.128906 4.160156 -5.113281 4.296875 -5.09375 C 4.460938 -5.070312 4.5625 -5.039062 4.59375 -5 C 4.632812 -4.96875 4.65625 -4.921875 4.65625 -4.859375 C 4.65625 -4.847656 4.632812 -4.8125 4.59375 -4.75 C 4.550781 -4.695312 4.46875 -4.664062 4.34375 -4.65625 C 4.21875 -4.65625 4.085938 -4.644531 3.953125 -4.625 C 3.816406 -4.613281 3.664062 -4.601562 3.5 -4.59375 C 3.351562 -4.59375 3.242188 -4.570312 3.171875 -4.53125 C 3.109375 -4.5 3.0625 -4.441406 3.03125 -4.359375 L 2.03125 -1.625 C 1.988281 -1.476562 1.96875 -1.363281 1.96875 -1.28125 C 1.96875 -1.195312 1.988281 -1.140625 2.03125 -1.109375 C 2.070312 -1.078125 2.117188 -1.0625 2.171875 -1.0625 C 2.285156 -1.0625 2.414062 -1.113281 2.5625 -1.21875 C 2.707031 -1.320312 2.851562 -1.4375 3 -1.5625 C 3.15625 -1.695312 3.28125 -1.8125 3.375 -1.90625 C 3.425781 -1.945312 3.46875 -1.96875 3.5 -1.96875 C 3.53125 -1.976562 3.550781 -1.972656 3.5625 -1.953125 C 3.582031 -1.921875 3.59375 -1.878906 3.59375 -1.828125 C 3.59375 -1.773438 3.578125 -1.71875 3.546875 -1.65625 C 3.492188 -1.519531 3.394531 -1.367188 3.25 -1.203125 C 3.113281 -1.046875 2.953125 -0.882812 2.765625 -0.71875 C 2.578125 -0.550781 2.378906 -0.398438 2.171875 -0.265625 C 1.972656 -0.140625 1.773438 -0.0351562 1.578125 0.046875 C 1.378906 0.128906 1.203125 0.171875 1.046875 0.171875 Z M 1.046875 0.171875 "/></g></g></g><g fill="#e7d49e" fill-opacity="1"><g transform="translate(127.117673, 92.113797)"><g/></g></g><g fill="#e7d49e" fill-opacity="1"><g transform="translate(129.929121, 92.113797)"><g><path d="M 4.4375 0.171875 C 3.851562 0.171875 3.320312 0.0820312 2.84375 -0.09375 C 2.363281 -0.28125 1.960938 -0.550781 1.640625 -0.90625 C 1.316406 -1.257812 1.09375 -1.691406 0.96875 -2.203125 C 0.84375 -2.710938 0.835938 -3.285156 0.953125 -3.921875 C 1.035156 -4.535156 1.226562 -5.101562 1.53125 -5.625 C 1.84375 -6.15625 2.242188 -6.617188 2.734375 -7.015625 C 3.222656 -7.410156 3.785156 -7.722656 4.421875 -7.953125 C 5.054688 -8.179688 5.738281 -8.296875 6.46875 -8.296875 C 6.75 -8.296875 6.992188 -8.269531 7.203125 -8.21875 C 7.421875 -8.164062 7.609375 -8.109375 7.765625 -8.046875 C 7.898438 -7.992188 8.015625 -7.953125 8.109375 -7.921875 C 8.210938 -7.890625 8.3125 -7.875 8.40625 -7.875 C 8.46875 -7.875 8.523438 -7.878906 8.578125 -7.890625 C 8.628906 -7.910156 8.675781 -7.9375 8.71875 -7.96875 C 8.78125 -8.007812 8.835938 -8.039062 8.890625 -8.0625 C 8.941406 -8.082031 8.992188 -8.09375 9.046875 -8.09375 C 9.128906 -8.09375 9.175781 -8.0625 9.1875 -8 C 9.195312 -7.9375 9.179688 -7.878906 9.140625 -7.828125 C 9.035156 -7.691406 8.921875 -7.507812 8.796875 -7.28125 C 8.679688 -7.0625 8.578125 -6.828125 8.484375 -6.578125 C 8.390625 -6.335938 8.3125 -6.113281 8.25 -5.90625 C 8.226562 -5.820312 8.195312 -5.75 8.15625 -5.6875 C 8.113281 -5.632812 8.054688 -5.609375 7.984375 -5.609375 C 7.804688 -5.609375 7.738281 -5.765625 7.78125 -6.078125 C 7.800781 -6.304688 7.796875 -6.519531 7.765625 -6.71875 C 7.742188 -6.925781 7.671875 -7.113281 7.546875 -7.28125 C 7.429688 -7.445312 7.265625 -7.585938 7.046875 -7.703125 C 6.835938 -7.828125 6.59375 -7.890625 6.3125 -7.890625 C 5.875 -7.890625 5.445312 -7.78125 5.03125 -7.5625 C 4.613281 -7.34375 4.234375 -7.035156 3.890625 -6.640625 C 3.554688 -6.242188 3.265625 -5.769531 3.015625 -5.21875 C 2.765625 -4.664062 2.582031 -4.054688 2.46875 -3.390625 C 2.382812 -2.929688 2.382812 -2.507812 2.46875 -2.125 C 2.550781 -1.738281 2.695312 -1.40625 2.90625 -1.125 C 3.125 -0.84375 3.382812 -0.625 3.6875 -0.46875 C 3.988281 -0.3125 4.3125 -0.234375 4.65625 -0.234375 C 5 -0.234375 5.28125 -0.335938 5.5 -0.546875 C 5.726562 -0.753906 5.882812 -1 5.96875 -1.28125 L 6.34375 -2.65625 C 6.382812 -2.78125 6.390625 -2.878906 6.359375 -2.953125 C 6.335938 -3.023438 6.269531 -3.085938 6.15625 -3.140625 C 6.039062 -3.179688 5.914062 -3.210938 5.78125 -3.234375 C 5.65625 -3.265625 5.550781 -3.289062 5.46875 -3.3125 C 5.382812 -3.332031 5.3125 -3.359375 5.25 -3.390625 C 5.1875 -3.429688 5.15625 -3.484375 5.15625 -3.546875 C 5.164062 -3.609375 5.207031 -3.65625 5.28125 -3.6875 C 5.363281 -3.71875 5.445312 -3.734375 5.53125 -3.734375 C 5.707031 -3.734375 5.898438 -3.722656 6.109375 -3.703125 C 6.316406 -3.691406 6.519531 -3.675781 6.71875 -3.65625 C 6.914062 -3.644531 7.101562 -3.640625 7.28125 -3.640625 C 7.507812 -3.640625 7.726562 -3.65625 7.9375 -3.6875 C 8.15625 -3.71875 8.414062 -3.734375 8.71875 -3.734375 C 8.882812 -3.734375 8.953125 -3.671875 8.921875 -3.546875 C 8.910156 -3.484375 8.875 -3.429688 8.8125 -3.390625 C 8.75 -3.347656 8.671875 -3.316406 8.578125 -3.296875 C 8.335938 -3.242188 8.164062 -3.175781 8.0625 -3.09375 C 7.957031 -3.007812 7.863281 -2.882812 7.78125 -2.71875 C 7.695312 -2.582031 7.617188 -2.410156 7.546875 -2.203125 C 7.472656 -2.003906 7.410156 -1.820312 7.359375 -1.65625 C 7.304688 -1.488281 7.28125 -1.378906 7.28125 -1.328125 C 7.28125 -1.242188 7.300781 -1.164062 7.34375 -1.09375 C 7.382812 -1.019531 7.4375 -0.941406 7.5 -0.859375 C 7.4375 -0.722656 7.289062 -0.59375 7.0625 -0.46875 C 6.832031 -0.34375 6.554688 -0.234375 6.234375 -0.140625 C 5.921875 -0.046875 5.601562 0.0234375 5.28125 0.078125 C 4.957031 0.140625 4.675781 0.171875 4.4375 0.171875 Z M 4.4375 0.171875 "/></g></g></g><g fill="#e7d49e" fill-opacity="1"><g transform="translate(138.83827, 92.113797)"><g><path d="M 1.578125 0.1875 C 1.367188 0.1875 1.148438 0.117188 0.921875 -0.015625 C 0.691406 -0.148438 0.5 -0.328125 0.34375 -0.546875 C 0.1875 -0.773438 0.109375 -1.015625 0.109375 -1.265625 C 0.109375 -1.742188 0.195312 -2.222656 0.375 -2.703125 C 0.5625 -3.191406 0.8125 -3.628906 1.125 -4.015625 C 1.445312 -4.410156 1.804688 -4.726562 2.203125 -4.96875 C 2.609375 -5.21875 3.023438 -5.34375 3.453125 -5.34375 C 3.867188 -5.34375 4.175781 -5.257812 4.375 -5.09375 C 4.570312 -4.925781 4.671875 -4.722656 4.671875 -4.484375 C 4.671875 -4.210938 4.582031 -3.972656 4.40625 -3.765625 C 4.226562 -3.566406 3.992188 -3.394531 3.703125 -3.25 C 3.421875 -3.113281 3.101562 -3 2.75 -2.90625 C 2.40625 -2.820312 2.078125 -2.742188 1.765625 -2.671875 C 1.722656 -2.660156 1.691406 -2.648438 1.671875 -2.640625 C 1.648438 -2.628906 1.628906 -2.601562 1.609375 -2.5625 C 1.578125 -2.457031 1.546875 -2.34375 1.515625 -2.21875 C 1.492188 -2.101562 1.476562 -1.992188 1.46875 -1.890625 C 1.46875 -1.597656 1.539062 -1.351562 1.6875 -1.15625 C 1.832031 -0.957031 2.046875 -0.859375 2.328125 -0.859375 C 2.585938 -0.859375 2.816406 -0.921875 3.015625 -1.046875 C 3.210938 -1.179688 3.394531 -1.34375 3.5625 -1.53125 C 3.65625 -1.613281 3.726562 -1.65625 3.78125 -1.65625 C 3.863281 -1.65625 3.90625 -1.613281 3.90625 -1.53125 C 3.90625 -1.507812 3.898438 -1.484375 3.890625 -1.453125 C 3.890625 -1.421875 3.878906 -1.398438 3.859375 -1.390625 C 3.703125 -1.097656 3.507812 -0.828125 3.28125 -0.578125 C 3.0625 -0.335938 2.804688 -0.148438 2.515625 -0.015625 C 2.234375 0.117188 1.921875 0.1875 1.578125 0.1875 Z M 1.84375 -3.0625 C 1.988281 -3.09375 2.160156 -3.140625 2.359375 -3.203125 C 2.554688 -3.265625 2.75 -3.351562 2.9375 -3.46875 C 3.125 -3.59375 3.28125 -3.738281 3.40625 -3.90625 C 3.53125 -4.070312 3.597656 -4.28125 3.609375 -4.53125 C 3.617188 -4.625 3.59375 -4.710938 3.53125 -4.796875 C 3.476562 -4.878906 3.394531 -4.921875 3.28125 -4.921875 C 3.113281 -4.921875 2.945312 -4.863281 2.78125 -4.75 C 2.613281 -4.632812 2.457031 -4.484375 2.3125 -4.296875 C 2.164062 -4.117188 2.039062 -3.925781 1.9375 -3.71875 C 1.84375 -3.507812 1.785156 -3.316406 1.765625 -3.140625 C 1.753906 -3.078125 1.78125 -3.050781 1.84375 -3.0625 Z M 1.84375 -3.0625 "/></g></g></g><g fill="#e7d49e" fill-opacity="1"><g transform="translate(143.424043, 92.113797)"><g><path d="M 1.25 0.1875 C 1.1875 0.1875 1.113281 0.160156 1.03125 0.109375 C 0.945312 0.0546875 0.863281 -0.00390625 0.78125 -0.078125 C 0.707031 -0.160156 0.65625 -0.253906 0.625 -0.359375 C 0.59375 -0.472656 0.601562 -0.582031 0.65625 -0.6875 L 1.984375 -3.96875 C 2.078125 -4.226562 2.050781 -4.359375 1.90625 -4.359375 C 1.832031 -4.359375 1.742188 -4.351562 1.640625 -4.34375 C 1.535156 -4.332031 1.421875 -4.289062 1.296875 -4.21875 C 1.171875 -4.144531 1.046875 -4.03125 0.921875 -3.875 C 0.890625 -3.832031 0.84375 -3.8125 0.78125 -3.8125 C 0.726562 -3.820312 0.695312 -3.863281 0.6875 -3.9375 C 0.6875 -4 0.707031 -4.070312 0.75 -4.15625 C 0.800781 -4.25 0.859375 -4.34375 0.921875 -4.4375 C 0.992188 -4.539062 1.050781 -4.613281 1.09375 -4.65625 C 1.269531 -4.851562 1.488281 -5.015625 1.75 -5.140625 C 2.007812 -5.265625 2.316406 -5.332031 2.671875 -5.34375 C 2.835938 -5.34375 2.972656 -5.296875 3.078125 -5.203125 C 3.179688 -5.117188 3.242188 -5.003906 3.265625 -4.859375 C 3.296875 -4.722656 3.285156 -4.582031 3.234375 -4.4375 L 2.515625 -2.640625 C 2.492188 -2.578125 2.515625 -2.539062 2.578125 -2.53125 C 2.640625 -2.53125 2.679688 -2.550781 2.703125 -2.59375 C 3.015625 -3.132812 3.328125 -3.609375 3.640625 -4.015625 C 3.953125 -4.429688 4.265625 -4.753906 4.578125 -4.984375 C 4.898438 -5.222656 5.21875 -5.34375 5.53125 -5.34375 C 5.8125 -5.34375 6.019531 -5.257812 6.15625 -5.09375 C 6.289062 -4.925781 6.367188 -4.71875 6.390625 -4.46875 C 6.410156 -4.226562 6.363281 -3.984375 6.25 -3.734375 L 5.234375 -1.359375 C 5.128906 -1.085938 5.148438 -0.953125 5.296875 -0.953125 C 5.367188 -0.953125 5.457031 -0.976562 5.5625 -1.03125 C 5.675781 -1.09375 5.789062 -1.164062 5.90625 -1.25 C 6.03125 -1.332031 6.132812 -1.410156 6.21875 -1.484375 C 6.3125 -1.554688 6.378906 -1.613281 6.421875 -1.65625 C 6.453125 -1.695312 6.484375 -1.726562 6.515625 -1.75 C 6.546875 -1.769531 6.578125 -1.78125 6.609375 -1.78125 C 6.628906 -1.78125 6.648438 -1.769531 6.671875 -1.75 C 6.703125 -1.726562 6.71875 -1.695312 6.71875 -1.65625 C 6.71875 -1.519531 6.675781 -1.398438 6.59375 -1.296875 C 6.351562 -1.015625 6.085938 -0.765625 5.796875 -0.546875 C 5.515625 -0.328125 5.222656 -0.148438 4.921875 -0.015625 C 4.617188 0.109375 4.328125 0.171875 4.046875 0.171875 C 3.941406 0.171875 3.835938 0.132812 3.734375 0.0625 C 3.640625 0 3.566406 -0.0703125 3.515625 -0.15625 C 3.472656 -0.25 3.472656 -0.351562 3.515625 -0.46875 C 3.773438 -1.050781 4.039062 -1.632812 4.3125 -2.21875 C 4.59375 -2.800781 4.847656 -3.394531 5.078125 -4 C 5.148438 -4.21875 5.175781 -4.375 5.15625 -4.46875 C 5.132812 -4.5625 5.078125 -4.609375 4.984375 -4.609375 C 4.867188 -4.617188 4.75 -4.566406 4.625 -4.453125 C 4.5 -4.335938 4.363281 -4.1875 4.21875 -4 C 4.070312 -3.820312 3.914062 -3.625 3.75 -3.40625 C 3.664062 -3.300781 3.550781 -3.132812 3.40625 -2.90625 C 3.269531 -2.6875 3.113281 -2.4375 2.9375 -2.15625 C 2.757812 -1.875 2.582031 -1.585938 2.40625 -1.296875 C 2.226562 -1.003906 2.066406 -0.734375 1.921875 -0.484375 C 1.804688 -0.285156 1.691406 -0.125 1.578125 0 C 1.472656 0.125 1.363281 0.1875 1.25 0.1875 Z M 1.25 0.1875 "/></g></g></g><g fill="#e7d49e" fill-opacity="1"><g transform="translate(150.60884, 92.113797)"><g><path d="M 1.578125 0.1875 C 1.367188 0.1875 1.148438 0.117188 0.921875 -0.015625 C 0.691406 -0.148438 0.5 -0.328125 0.34375 -0.546875 C 0.1875 -0.773438 0.109375 -1.015625 0.109375 -1.265625 C 0.109375 -1.742188 0.195312 -2.222656 0.375 -2.703125 C 0.5625 -3.191406 0.8125 -3.628906 1.125 -4.015625 C 1.445312 -4.410156 1.804688 -4.726562 2.203125 -4.96875 C 2.609375 -5.21875 3.023438 -5.34375 3.453125 -5.34375 C 3.867188 -5.34375 4.175781 -5.257812 4.375 -5.09375 C 4.570312 -4.925781 4.671875 -4.722656 4.671875 -4.484375 C 4.671875 -4.210938 4.582031 -3.972656 4.40625 -3.765625 C 4.226562 -3.566406 3.992188 -3.394531 3.703125 -3.25 C 3.421875 -3.113281 3.101562 -3 2.75 -2.90625 C 2.40625 -2.820312 2.078125 -2.742188 1.765625 -2.671875 C 1.722656 -2.660156 1.691406 -2.648438 1.671875 -2.640625 C 1.648438 -2.628906 1.628906 -2.601562 1.609375 -2.5625 C 1.578125 -2.457031 1.546875 -2.34375 1.515625 -2.21875 C 1.492188 -2.101562 1.476562 -1.992188 1.46875 -1.890625 C 1.46875 -1.597656 1.539062 -1.351562 1.6875 -1.15625 C 1.832031 -0.957031 2.046875 -0.859375 2.328125 -0.859375 C 2.585938 -0.859375 2.816406 -0.921875 3.015625 -1.046875 C 3.210938 -1.179688 3.394531 -1.34375 3.5625 -1.53125 C 3.65625 -1.613281 3.726562 -1.65625 3.78125 -1.65625 C 3.863281 -1.65625 3.90625 -1.613281 3.90625 -1.53125 C 3.90625 -1.507812 3.898438 -1.484375 3.890625 -1.453125 C 3.890625 -1.421875 3.878906 -1.398438 3.859375 -1.390625 C 3.703125 -1.097656 3.507812 -0.828125 3.28125 -0.578125 C 3.0625 -0.335938 2.804688 -0.148438 2.515625 -0.015625 C 2.234375 0.117188 1.921875 0.1875 1.578125 0.1875 Z M 1.84375 -3.0625 C 1.988281 -3.09375 2.160156 -3.140625 2.359375 -3.203125 C 2.554688 -3.265625 2.75 -3.351562 2.9375 -3.46875 C 3.125 -3.59375 3.28125 -3.738281 3.40625 -3.90625 C 3.53125 -4.070312 3.597656 -4.28125 3.609375 -4.53125 C 3.617188 -4.625 3.59375 -4.710938 3.53125 -4.796875 C 3.476562 -4.878906 3.394531 -4.921875 3.28125 -4.921875 C 3.113281 -4.921875 2.945312 -4.863281 2.78125 -4.75 C 2.613281 -4.632812 2.457031 -4.484375 2.3125 -4.296875 C 2.164062 -4.117188 2.039062 -3.925781 1.9375 -3.71875 C 1.84375 -3.507812 1.785156 -3.316406 1.765625 -3.140625 C 1.753906 -3.078125 1.78125 -3.050781 1.84375 -3.0625 Z M 1.84375 -3.0625 "/></g></g></g><g fill="#e7d49e" fill-opacity="1"><g transform="translate(155.194613, 92.113797)"><g><path d="M 1.03125 0.1875 C 0.96875 0.1875 0.890625 0.164062 0.796875 0.125 C 0.703125 0.09375 0.617188 0.0390625 0.546875 -0.03125 C 0.484375 -0.113281 0.453125 -0.195312 0.453125 -0.28125 C 0.453125 -0.363281 0.460938 -0.445312 0.484375 -0.53125 C 0.515625 -0.625 0.550781 -0.738281 0.59375 -0.875 L 1.828125 -4.0625 C 1.867188 -4.15625 1.878906 -4.234375 1.859375 -4.296875 C 1.847656 -4.367188 1.800781 -4.40625 1.71875 -4.40625 C 1.550781 -4.40625 1.414062 -4.375 1.3125 -4.3125 C 1.207031 -4.257812 1.109375 -4.195312 1.015625 -4.125 C 0.972656 -4.09375 0.921875 -4.078125 0.859375 -4.078125 C 0.804688 -4.085938 0.773438 -4.128906 0.765625 -4.203125 C 0.753906 -4.335938 0.8125 -4.476562 0.9375 -4.625 C 1.0625 -4.769531 1.21875 -4.898438 1.40625 -5.015625 C 1.5625 -5.109375 1.734375 -5.1875 1.921875 -5.25 C 2.109375 -5.3125 2.289062 -5.34375 2.46875 -5.34375 C 2.707031 -5.34375 2.867188 -5.28125 2.953125 -5.15625 C 3.046875 -5.03125 3.082031 -4.863281 3.0625 -4.65625 C 3.039062 -4.445312 2.976562 -4.203125 2.875 -3.921875 L 2.359375 -2.703125 C 2.335938 -2.640625 2.347656 -2.601562 2.390625 -2.59375 C 2.441406 -2.582031 2.484375 -2.601562 2.515625 -2.65625 C 2.816406 -3.195312 3.113281 -3.664062 3.40625 -4.0625 C 3.707031 -4.46875 4.003906 -4.785156 4.296875 -5.015625 C 4.585938 -5.242188 4.867188 -5.359375 5.140625 -5.359375 C 5.378906 -5.359375 5.5625 -5.285156 5.6875 -5.140625 C 5.8125 -4.992188 5.875 -4.820312 5.875 -4.625 C 5.875 -4.425781 5.828125 -4.226562 5.734375 -4.03125 C 5.648438 -3.84375 5.539062 -3.691406 5.40625 -3.578125 C 5.28125 -3.460938 5.15625 -3.40625 5.03125 -3.40625 C 4.945312 -3.40625 4.882812 -3.445312 4.84375 -3.53125 C 4.800781 -3.613281 4.765625 -3.734375 4.734375 -3.890625 C 4.722656 -4.023438 4.695312 -4.140625 4.65625 -4.234375 C 4.613281 -4.335938 4.539062 -4.390625 4.4375 -4.390625 C 4.3125 -4.390625 4.175781 -4.304688 4.03125 -4.140625 C 3.882812 -3.984375 3.710938 -3.75 3.515625 -3.4375 C 3.441406 -3.332031 3.34375 -3.171875 3.21875 -2.953125 C 3.09375 -2.742188 2.953125 -2.515625 2.796875 -2.265625 C 2.640625 -2.015625 2.484375 -1.757812 2.328125 -1.5 C 2.179688 -1.25 2.054688 -1.03125 1.953125 -0.84375 C 1.773438 -0.519531 1.609375 -0.265625 1.453125 -0.078125 C 1.304688 0.0976562 1.164062 0.1875 1.03125 0.1875 Z M 1.03125 0.1875 "/></g></g></g><g fill="#e7d49e" fill-opacity="1"><g transform="translate(160.580085, 92.113797)"><g><path d="M 0.5 0.171875 C 0.394531 0.171875 0.285156 0.140625 0.171875 0.078125 C 0.0546875 0.015625 -0.0351562 -0.0546875 -0.109375 -0.140625 C -0.179688 -0.234375 -0.21875 -0.328125 -0.21875 -0.421875 C -0.21875 -0.703125 -0.132812 -1.007812 0.03125 -1.34375 C 0.195312 -1.675781 0.453125 -2.0625 0.796875 -2.5 C 1.140625 -2.9375 1.585938 -3.4375 2.140625 -4 C 2.523438 -4.394531 2.867188 -4.707031 3.171875 -4.9375 C 3.484375 -5.164062 3.710938 -5.28125 3.859375 -5.28125 C 4.054688 -5.28125 4.257812 -5.179688 4.46875 -4.984375 C 4.550781 -4.898438 4.59375 -4.859375 4.59375 -4.859375 C 4.613281 -4.859375 4.628906 -4.863281 4.640625 -4.875 C 4.648438 -4.882812 4.660156 -4.90625 4.671875 -4.9375 C 4.753906 -5.082031 4.804688 -5.175781 4.828125 -5.21875 C 4.859375 -5.269531 4.875 -5.304688 4.875 -5.328125 C 4.914062 -5.421875 5 -5.46875 5.125 -5.46875 C 5.238281 -5.46875 5.351562 -5.441406 5.46875 -5.390625 C 5.59375 -5.347656 5.695312 -5.289062 5.78125 -5.21875 C 5.863281 -5.144531 5.90625 -5.082031 5.90625 -5.03125 C 5.90625 -4.976562 5.890625 -4.914062 5.859375 -4.84375 L 4.5625 -1.34375 C 4.476562 -1.09375 4.523438 -0.96875 4.703125 -0.96875 C 4.816406 -0.96875 4.972656 -1.039062 5.171875 -1.1875 C 5.378906 -1.332031 5.578125 -1.507812 5.765625 -1.71875 C 5.785156 -1.738281 5.800781 -1.75 5.8125 -1.75 C 5.820312 -1.757812 5.832031 -1.765625 5.84375 -1.765625 C 5.882812 -1.765625 5.914062 -1.75 5.9375 -1.71875 C 5.957031 -1.6875 5.96875 -1.644531 5.96875 -1.59375 C 5.96875 -1.488281 5.894531 -1.335938 5.75 -1.140625 C 5.601562 -0.953125 5.425781 -0.769531 5.21875 -0.59375 C 4.945312 -0.34375 4.671875 -0.148438 4.390625 -0.015625 C 4.117188 0.109375 3.882812 0.171875 3.6875 0.171875 C 3.582031 0.171875 3.46875 0.140625 3.34375 0.078125 C 3.226562 0.015625 3.132812 -0.0625 3.0625 -0.15625 C 2.988281 -0.25 2.953125 -0.34375 2.953125 -0.4375 C 2.953125 -0.507812 2.976562 -0.601562 3.03125 -0.71875 C 3.03125 -0.726562 3.039062 -0.769531 3.0625 -0.84375 C 3.09375 -0.925781 3.132812 -1.03125 3.1875 -1.15625 C 3.238281 -1.28125 3.289062 -1.398438 3.34375 -1.515625 C 3.40625 -1.640625 3.460938 -1.753906 3.515625 -1.859375 C 3.535156 -1.921875 3.535156 -1.960938 3.515625 -1.984375 C 3.492188 -2.015625 3.46875 -2.015625 3.4375 -1.984375 C 2.988281 -1.472656 2.585938 -1.054688 2.234375 -0.734375 C 1.878906 -0.421875 1.5625 -0.191406 1.28125 -0.046875 C 1.007812 0.0976562 0.75 0.171875 0.5 0.171875 Z M 1.609375 -0.96875 C 1.765625 -0.96875 2.003906 -1.101562 2.328125 -1.375 C 2.660156 -1.65625 3.007812 -2.019531 3.375 -2.46875 C 3.65625 -2.800781 3.878906 -3.101562 4.046875 -3.375 C 4.210938 -3.65625 4.296875 -3.859375 4.296875 -3.984375 C 4.296875 -4.054688 4.222656 -4.15625 4.078125 -4.28125 C 4.003906 -4.332031 3.925781 -4.375 3.84375 -4.40625 C 3.769531 -4.445312 3.707031 -4.46875 3.65625 -4.46875 C 3.53125 -4.46875 3.347656 -4.390625 3.109375 -4.234375 C 2.867188 -4.085938 2.644531 -3.914062 2.4375 -3.71875 C 2.238281 -3.507812 2.046875 -3.265625 1.859375 -2.984375 C 1.679688 -2.710938 1.53125 -2.429688 1.40625 -2.140625 C 1.289062 -1.859375 1.234375 -1.613281 1.234375 -1.40625 C 1.234375 -1.28125 1.265625 -1.175781 1.328125 -1.09375 C 1.398438 -1.007812 1.492188 -0.96875 1.609375 -0.96875 Z M 1.609375 -0.96875 "/></g></g></g><g fill="#e7d49e" fill-opacity="1"><g transform="translate(167.140121, 92.113797)"><g><path d="M 1.046875 0.171875 C 0.941406 0.171875 0.832031 0.132812 0.71875 0.0625 C 0.613281 -0.0078125 0.523438 -0.0976562 0.453125 -0.203125 C 0.390625 -0.304688 0.359375 -0.394531 0.359375 -0.46875 C 0.359375 -0.5625 0.367188 -0.644531 0.390625 -0.71875 C 0.421875 -0.800781 0.460938 -0.910156 0.515625 -1.046875 L 1.6875 -4.28125 C 1.726562 -4.382812 1.726562 -4.453125 1.6875 -4.484375 C 1.65625 -4.523438 1.613281 -4.546875 1.5625 -4.546875 L 0.984375 -4.578125 C 0.859375 -4.585938 0.78125 -4.613281 0.75 -4.65625 C 0.726562 -4.707031 0.71875 -4.753906 0.71875 -4.796875 C 0.71875 -4.816406 0.738281 -4.859375 0.78125 -4.921875 C 0.832031 -4.984375 0.898438 -5.039062 0.984375 -5.09375 C 1.066406 -5.144531 1.15625 -5.171875 1.25 -5.171875 L 1.796875 -5.171875 C 1.910156 -5.171875 1.988281 -5.1875 2.03125 -5.21875 C 2.070312 -5.257812 2.117188 -5.34375 2.171875 -5.46875 L 2.515625 -6.140625 C 2.566406 -6.242188 2.644531 -6.347656 2.75 -6.453125 C 2.851562 -6.566406 2.960938 -6.660156 3.078125 -6.734375 C 3.203125 -6.804688 3.304688 -6.84375 3.390625 -6.84375 C 3.492188 -6.84375 3.5625 -6.785156 3.59375 -6.671875 C 3.632812 -6.554688 3.632812 -6.445312 3.59375 -6.34375 L 3.28125 -5.40625 C 3.257812 -5.3125 3.265625 -5.25 3.296875 -5.21875 C 3.328125 -5.1875 3.382812 -5.171875 3.46875 -5.171875 C 3.59375 -5.171875 3.726562 -5.160156 3.875 -5.140625 C 4.019531 -5.128906 4.160156 -5.113281 4.296875 -5.09375 C 4.460938 -5.070312 4.5625 -5.039062 4.59375 -5 C 4.632812 -4.96875 4.65625 -4.921875 4.65625 -4.859375 C 4.65625 -4.847656 4.632812 -4.8125 4.59375 -4.75 C 4.550781 -4.695312 4.46875 -4.664062 4.34375 -4.65625 C 4.21875 -4.65625 4.085938 -4.644531 3.953125 -4.625 C 3.816406 -4.613281 3.664062 -4.601562 3.5 -4.59375 C 3.351562 -4.59375 3.242188 -4.570312 3.171875 -4.53125 C 3.109375 -4.5 3.0625 -4.441406 3.03125 -4.359375 L 2.03125 -1.625 C 1.988281 -1.476562 1.96875 -1.363281 1.96875 -1.28125 C 1.96875 -1.195312 1.988281 -1.140625 2.03125 -1.109375 C 2.070312 -1.078125 2.117188 -1.0625 2.171875 -1.0625 C 2.285156 -1.0625 2.414062 -1.113281 2.5625 -1.21875 C 2.707031 -1.320312 2.851562 -1.4375 3 -1.5625 C 3.15625 -1.695312 3.28125 -1.8125 3.375 -1.90625 C 3.425781 -1.945312 3.46875 -1.96875 3.5 -1.96875 C 3.53125 -1.976562 3.550781 -1.972656 3.5625 -1.953125 C 3.582031 -1.921875 3.59375 -1.878906 3.59375 -1.828125 C 3.59375 -1.773438 3.578125 -1.71875 3.546875 -1.65625 C 3.492188 -1.519531 3.394531 -1.367188 3.25 -1.203125 C 3.113281 -1.046875 2.953125 -0.882812 2.765625 -0.71875 C 2.578125 -0.550781 2.378906 -0.398438 2.171875 -0.265625 C 1.972656 -0.140625 1.773438 -0.0351562 1.578125 0.046875 C 1.378906 0.128906 1.203125 0.171875 1.046875 0.171875 Z M 1.046875 0.171875 "/></g></g></g><g fill="#e7d49e" fill-opacity="1"><g transform="translate(171.388527, 92.113797)"><g><path d="M 0.984375 0.171875 C 0.804688 0.171875 0.648438 0.109375 0.515625 -0.015625 C 0.390625 -0.148438 0.328125 -0.28125 0.328125 -0.40625 C 0.328125 -0.445312 0.328125 -0.488281 0.328125 -0.53125 C 0.335938 -0.570312 0.351562 -0.613281 0.375 -0.65625 C 0.644531 -1.238281 0.890625 -1.804688 1.109375 -2.359375 C 1.328125 -2.910156 1.53125 -3.425781 1.71875 -3.90625 C 1.75 -3.96875 1.734375 -4 1.671875 -4 C 1.617188 -4 1.539062 -3.976562 1.4375 -3.9375 C 1.332031 -3.894531 1.226562 -3.84375 1.125 -3.78125 C 1.019531 -3.71875 0.914062 -3.65625 0.8125 -3.59375 C 0.726562 -3.539062 0.660156 -3.523438 0.609375 -3.546875 C 0.566406 -3.578125 0.546875 -3.625 0.546875 -3.6875 C 0.546875 -3.738281 0.59375 -3.816406 0.6875 -3.921875 C 0.789062 -4.035156 0.914062 -4.15625 1.0625 -4.28125 C 1.21875 -4.40625 1.390625 -4.535156 1.578125 -4.671875 C 1.773438 -4.804688 1.96875 -4.929688 2.15625 -5.046875 C 2.351562 -5.160156 2.53125 -5.25 2.6875 -5.3125 C 2.789062 -5.351562 2.894531 -5.34375 3 -5.28125 C 3.113281 -5.226562 3.203125 -5.148438 3.265625 -5.046875 C 3.335938 -4.953125 3.359375 -4.867188 3.328125 -4.796875 L 1.890625 -1.28125 C 1.859375 -1.238281 1.835938 -1.195312 1.828125 -1.15625 C 1.828125 -1.113281 1.828125 -1.070312 1.828125 -1.03125 C 1.828125 -0.988281 1.835938 -0.957031 1.859375 -0.9375 C 1.890625 -0.925781 1.921875 -0.921875 1.953125 -0.921875 C 2.046875 -0.921875 2.164062 -0.972656 2.3125 -1.078125 C 2.46875 -1.179688 2.628906 -1.300781 2.796875 -1.4375 C 2.972656 -1.582031 3.128906 -1.722656 3.265625 -1.859375 C 3.273438 -1.890625 3.289062 -1.90625 3.3125 -1.90625 C 3.34375 -1.90625 3.367188 -1.890625 3.390625 -1.859375 C 3.421875 -1.828125 3.4375 -1.796875 3.4375 -1.765625 C 3.4375 -1.609375 3.347656 -1.425781 3.171875 -1.21875 C 3.003906 -1.007812 2.789062 -0.796875 2.53125 -0.578125 C 2.28125 -0.367188 2.015625 -0.191406 1.734375 -0.046875 C 1.453125 0.0976562 1.203125 0.171875 0.984375 0.171875 Z M 3.359375 -6.328125 C 3.191406 -6.328125 3.054688 -6.390625 2.953125 -6.515625 C 2.847656 -6.648438 2.796875 -6.796875 2.796875 -6.953125 C 2.796875 -7.210938 2.882812 -7.441406 3.0625 -7.640625 C 3.238281 -7.835938 3.460938 -7.9375 3.734375 -7.9375 C 3.898438 -7.9375 4.035156 -7.863281 4.140625 -7.71875 C 4.242188 -7.570312 4.296875 -7.414062 4.296875 -7.25 C 4.296875 -7.007812 4.203125 -6.796875 4.015625 -6.609375 C 3.835938 -6.421875 3.617188 -6.328125 3.359375 -6.328125 Z M 3.359375 -6.328125 "/></g></g></g><g fill="#e7d49e" fill-opacity="1"><g transform="translate(175.374526, 92.113797)"><g><path d="M 1.734375 0.171875 C 1.460938 0.171875 1.203125 0.0976562 0.953125 -0.046875 C 0.710938 -0.191406 0.519531 -0.382812 0.375 -0.625 C 0.226562 -0.875 0.15625 -1.15625 0.15625 -1.46875 C 0.15625 -1.863281 0.234375 -2.28125 0.390625 -2.71875 C 0.554688 -3.164062 0.785156 -3.585938 1.078125 -3.984375 C 1.378906 -4.378906 1.738281 -4.703125 2.15625 -4.953125 C 2.582031 -5.210938 3.054688 -5.34375 3.578125 -5.34375 C 4.085938 -5.34375 4.492188 -5.1875 4.796875 -4.875 C 5.097656 -4.570312 5.25 -4.164062 5.25 -3.65625 C 5.25 -3.28125 5.171875 -2.867188 5.015625 -2.421875 C 4.859375 -1.984375 4.625 -1.566406 4.3125 -1.171875 C 4 -0.773438 3.628906 -0.453125 3.203125 -0.203125 C 2.773438 0.046875 2.285156 0.171875 1.734375 0.171875 Z M 1.96875 -0.28125 C 2.144531 -0.28125 2.320312 -0.367188 2.5 -0.546875 C 2.6875 -0.734375 2.863281 -0.972656 3.03125 -1.265625 C 3.195312 -1.566406 3.34375 -1.894531 3.46875 -2.25 C 3.59375 -2.601562 3.695312 -2.957031 3.78125 -3.3125 C 3.863281 -3.675781 3.90625 -4.003906 3.90625 -4.296875 C 3.90625 -4.484375 3.867188 -4.628906 3.796875 -4.734375 C 3.734375 -4.847656 3.613281 -4.90625 3.4375 -4.90625 C 3.28125 -4.90625 3.109375 -4.816406 2.921875 -4.640625 C 2.742188 -4.460938 2.570312 -4.226562 2.40625 -3.9375 C 2.238281 -3.65625 2.085938 -3.335938 1.953125 -2.984375 C 1.816406 -2.628906 1.707031 -2.269531 1.625 -1.90625 C 1.539062 -1.550781 1.5 -1.21875 1.5 -0.90625 C 1.5 -0.6875 1.539062 -0.523438 1.625 -0.421875 C 1.71875 -0.328125 1.832031 -0.28125 1.96875 -0.28125 Z M 1.96875 -0.28125 "/></g></g></g><g fill="#e7d49e" fill-opacity="1"><g transform="translate(180.772497, 92.113797)"><g><path d="M 1.25 0.1875 C 1.1875 0.1875 1.113281 0.160156 1.03125 0.109375 C 0.945312 0.0546875 0.863281 -0.00390625 0.78125 -0.078125 C 0.707031 -0.160156 0.65625 -0.253906 0.625 -0.359375 C 0.59375 -0.472656 0.601562 -0.582031 0.65625 -0.6875 L 1.984375 -3.96875 C 2.078125 -4.226562 2.050781 -4.359375 1.90625 -4.359375 C 1.832031 -4.359375 1.742188 -4.351562 1.640625 -4.34375 C 1.535156 -4.332031 1.421875 -4.289062 1.296875 -4.21875 C 1.171875 -4.144531 1.046875 -4.03125 0.921875 -3.875 C 0.890625 -3.832031 0.84375 -3.8125 0.78125 -3.8125 C 0.726562 -3.820312 0.695312 -3.863281 0.6875 -3.9375 C 0.6875 -4 0.707031 -4.070312 0.75 -4.15625 C 0.800781 -4.25 0.859375 -4.34375 0.921875 -4.4375 C 0.992188 -4.539062 1.050781 -4.613281 1.09375 -4.65625 C 1.269531 -4.851562 1.488281 -5.015625 1.75 -5.140625 C 2.007812 -5.265625 2.316406 -5.332031 2.671875 -5.34375 C 2.835938 -5.34375 2.972656 -5.296875 3.078125 -5.203125 C 3.179688 -5.117188 3.242188 -5.003906 3.265625 -4.859375 C 3.296875 -4.722656 3.285156 -4.582031 3.234375 -4.4375 L 2.515625 -2.640625 C 2.492188 -2.578125 2.515625 -2.539062 2.578125 -2.53125 C 2.640625 -2.53125 2.679688 -2.550781 2.703125 -2.59375 C 3.015625 -3.132812 3.328125 -3.609375 3.640625 -4.015625 C 3.953125 -4.429688 4.265625 -4.753906 4.578125 -4.984375 C 4.898438 -5.222656 5.21875 -5.34375 5.53125 -5.34375 C 5.8125 -5.34375 6.019531 -5.257812 6.15625 -5.09375 C 6.289062 -4.925781 6.367188 -4.71875 6.390625 -4.46875 C 6.410156 -4.226562 6.363281 -3.984375 6.25 -3.734375 L 5.234375 -1.359375 C 5.128906 -1.085938 5.148438 -0.953125 5.296875 -0.953125 C 5.367188 -0.953125 5.457031 -0.976562 5.5625 -1.03125 C 5.675781 -1.09375 5.789062 -1.164062 5.90625 -1.25 C 6.03125 -1.332031 6.132812 -1.410156 6.21875 -1.484375 C 6.3125 -1.554688 6.378906 -1.613281 6.421875 -1.65625 C 6.453125 -1.695312 6.484375 -1.726562 6.515625 -1.75 C 6.546875 -1.769531 6.578125 -1.78125 6.609375 -1.78125 C 6.628906 -1.78125 6.648438 -1.769531 6.671875 -1.75 C 6.703125 -1.726562 6.71875 -1.695312 6.71875 -1.65625 C 6.71875 -1.519531 6.675781 -1.398438 6.59375 -1.296875 C 6.351562 -1.015625 6.085938 -0.765625 5.796875 -0.546875 C 5.515625 -0.328125 5.222656 -0.148438 4.921875 -0.015625 C 4.617188 0.109375 4.328125 0.171875 4.046875 0.171875 C 3.941406 0.171875 3.835938 0.132812 3.734375 0.0625 C 3.640625 0 3.566406 -0.0703125 3.515625 -0.15625 C 3.472656 -0.25 3.472656 -0.351562 3.515625 -0.46875 C 3.773438 -1.050781 4.039062 -1.632812 4.3125 -2.21875 C 4.59375 -2.800781 4.847656 -3.394531 5.078125 -4 C 5.148438 -4.21875 5.175781 -4.375 5.15625 -4.46875 C 5.132812 -4.5625 5.078125 -4.609375 4.984375 -4.609375 C 4.867188 -4.617188 4.75 -4.566406 4.625 -4.453125 C 4.5 -4.335938 4.363281 -4.1875 4.21875 -4 C 4.070312 -3.820312 3.914062 -3.625 3.75 -3.40625 C 3.664062 -3.300781 3.550781 -3.132812 3.40625 -2.90625 C 3.269531 -2.6875 3.113281 -2.4375 2.9375 -2.15625 C 2.757812 -1.875 2.582031 -1.585938 2.40625 -1.296875 C 2.226562 -1.003906 2.066406 -0.734375 1.921875 -0.484375 C 1.804688 -0.285156 1.691406 -0.125 1.578125 0 C 1.472656 0.125 1.363281 0.1875 1.25 0.1875 Z M 1.25 0.1875 "/></g></g></g><g fill="#e7d49e" fill-opacity="1"><g transform="translate(187.957294, 92.113797)"><g/></g></g><g fill="#e7d49e" fill-opacity="1"><g transform="translate(190.768741, 92.113797)"><g><path d="M -0.203125 0.0625 C -0.359375 0.0625 -0.4375 0.0078125 -0.4375 -0.09375 C -0.4375 -0.144531 -0.398438 -0.191406 -0.328125 -0.234375 C -0.253906 -0.285156 -0.160156 -0.320312 -0.046875 -0.34375 C 0.253906 -0.425781 0.488281 -0.519531 0.65625 -0.625 C 0.820312 -0.738281 0.945312 -0.9375 1.03125 -1.21875 L 2.78125 -6.875 C 2.875 -7.164062 2.878906 -7.367188 2.796875 -7.484375 C 2.710938 -7.597656 2.539062 -7.679688 2.28125 -7.734375 C 2.1875 -7.765625 2.117188 -7.796875 2.078125 -7.828125 C 2.046875 -7.859375 2.03125 -7.894531 2.03125 -7.9375 C 2.03125 -8 2.066406 -8.050781 2.140625 -8.09375 C 2.210938 -8.132812 2.296875 -8.15625 2.390625 -8.15625 C 2.609375 -8.15625 2.785156 -8.148438 2.921875 -8.140625 C 3.066406 -8.128906 3.203125 -8.113281 3.328125 -8.09375 C 3.453125 -8.082031 3.601562 -8.078125 3.78125 -8.078125 C 3.945312 -8.078125 4.109375 -8.085938 4.265625 -8.109375 C 4.429688 -8.128906 4.601562 -8.144531 4.78125 -8.15625 C 4.957031 -8.164062 5.148438 -8.171875 5.359375 -8.171875 C 5.898438 -8.171875 6.34375 -8.101562 6.6875 -7.96875 C 7.039062 -7.84375 7.300781 -7.65625 7.46875 -7.40625 C 7.632812 -7.164062 7.71875 -6.890625 7.71875 -6.578125 C 7.71875 -6.296875 7.648438 -6.039062 7.515625 -5.8125 C 7.390625 -5.59375 7.21875 -5.394531 7 -5.21875 C 6.78125 -5.050781 6.535156 -4.910156 6.265625 -4.796875 C 5.992188 -4.691406 5.722656 -4.609375 5.453125 -4.546875 C 5.398438 -4.535156 5.367188 -4.515625 5.359375 -4.484375 C 5.359375 -4.460938 5.375 -4.441406 5.40625 -4.421875 C 5.894531 -4.253906 6.285156 -4.019531 6.578125 -3.71875 C 6.878906 -3.414062 7.03125 -2.988281 7.03125 -2.4375 C 7.03125 -2.007812 6.929688 -1.640625 6.734375 -1.328125 C 6.535156 -1.015625 6.257812 -0.753906 5.90625 -0.546875 C 5.550781 -0.347656 5.140625 -0.195312 4.671875 -0.09375 C 4.210938 0 3.722656 0.046875 3.203125 0.046875 C 2.867188 0.046875 2.566406 0.0351562 2.296875 0.015625 C 2.035156 -0.00390625 1.765625 -0.015625 1.484375 -0.015625 C 1.304688 -0.015625 1.125 -0.0078125 0.9375 0 C 0.75 0.0195312 0.5625 0.0351562 0.375 0.046875 C 0.1875 0.0546875 -0.00390625 0.0625 -0.203125 0.0625 Z M 3.28125 -0.328125 C 3.53125 -0.347656 3.78125 -0.425781 4.03125 -0.5625 C 4.289062 -0.707031 4.519531 -0.894531 4.71875 -1.125 C 4.925781 -1.351562 5.09375 -1.601562 5.21875 -1.875 C 5.34375 -2.144531 5.40625 -2.429688 5.40625 -2.734375 C 5.40625 -3.179688 5.28125 -3.535156 5.03125 -3.796875 C 4.78125 -4.066406 4.410156 -4.203125 3.921875 -4.203125 C 3.785156 -4.203125 3.679688 -4.179688 3.609375 -4.140625 C 3.535156 -4.097656 3.484375 -4.023438 3.453125 -3.921875 L 2.65625 -1.28125 C 2.613281 -1.164062 2.59375 -1.046875 2.59375 -0.921875 C 2.601562 -0.796875 2.644531 -0.695312 2.71875 -0.625 C 2.769531 -0.550781 2.84375 -0.484375 2.9375 -0.421875 C 3.03125 -0.359375 3.144531 -0.328125 3.28125 -0.328125 Z M 4.03125 -4.578125 C 4.21875 -4.578125 4.390625 -4.597656 4.546875 -4.640625 C 4.710938 -4.679688 4.882812 -4.726562 5.0625 -4.78125 C 5.394531 -4.976562 5.679688 -5.234375 5.921875 -5.546875 C 6.160156 -5.859375 6.28125 -6.226562 6.28125 -6.65625 C 6.28125 -6.957031 6.171875 -7.226562 5.953125 -7.46875 C 5.742188 -7.707031 5.457031 -7.828125 5.09375 -7.828125 C 4.925781 -7.828125 4.796875 -7.800781 4.703125 -7.75 C 4.617188 -7.695312 4.554688 -7.601562 4.515625 -7.46875 L 3.75 -4.84375 C 3.695312 -4.664062 3.789062 -4.578125 4.03125 -4.578125 Z M 4.03125 -4.578125 "/></g></g></g><g fill="#e7d49e" fill-opacity="1"><g transform="translate(198.378384, 92.113797)"><g><path d="M 0.5 0.171875 C 0.394531 0.171875 0.285156 0.140625 0.171875 0.078125 C 0.0546875 0.015625 -0.0351562 -0.0546875 -0.109375 -0.140625 C -0.179688 -0.234375 -0.21875 -0.328125 -0.21875 -0.421875 C -0.21875 -0.703125 -0.132812 -1.007812 0.03125 -1.34375 C 0.195312 -1.675781 0.453125 -2.0625 0.796875 -2.5 C 1.140625 -2.9375 1.585938 -3.4375 2.140625 -4 C 2.523438 -4.394531 2.867188 -4.707031 3.171875 -4.9375 C 3.484375 -5.164062 3.710938 -5.28125 3.859375 -5.28125 C 4.054688 -5.28125 4.257812 -5.179688 4.46875 -4.984375 C 4.550781 -4.898438 4.59375 -4.859375 4.59375 -4.859375 C 4.613281 -4.859375 4.628906 -4.863281 4.640625 -4.875 C 4.648438 -4.882812 4.660156 -4.90625 4.671875 -4.9375 C 4.753906 -5.082031 4.804688 -5.175781 4.828125 -5.21875 C 4.859375 -5.269531 4.875 -5.304688 4.875 -5.328125 C 4.914062 -5.421875 5 -5.46875 5.125 -5.46875 C 5.238281 -5.46875 5.351562 -5.441406 5.46875 -5.390625 C 5.59375 -5.347656 5.695312 -5.289062 5.78125 -5.21875 C 5.863281 -5.144531 5.90625 -5.082031 5.90625 -5.03125 C 5.90625 -4.976562 5.890625 -4.914062 5.859375 -4.84375 L 4.5625 -1.34375 C 4.476562 -1.09375 4.523438 -0.96875 4.703125 -0.96875 C 4.816406 -0.96875 4.972656 -1.039062 5.171875 -1.1875 C 5.378906 -1.332031 5.578125 -1.507812 5.765625 -1.71875 C 5.785156 -1.738281 5.800781 -1.75 5.8125 -1.75 C 5.820312 -1.757812 5.832031 -1.765625 5.84375 -1.765625 C 5.882812 -1.765625 5.914062 -1.75 5.9375 -1.71875 C 5.957031 -1.6875 5.96875 -1.644531 5.96875 -1.59375 C 5.96875 -1.488281 5.894531 -1.335938 5.75 -1.140625 C 5.601562 -0.953125 5.425781 -0.769531 5.21875 -0.59375 C 4.945312 -0.34375 4.671875 -0.148438 4.390625 -0.015625 C 4.117188 0.109375 3.882812 0.171875 3.6875 0.171875 C 3.582031 0.171875 3.46875 0.140625 3.34375 0.078125 C 3.226562 0.015625 3.132812 -0.0625 3.0625 -0.15625 C 2.988281 -0.25 2.953125 -0.34375 2.953125 -0.4375 C 2.953125 -0.507812 2.976562 -0.601562 3.03125 -0.71875 C 3.03125 -0.726562 3.039062 -0.769531 3.0625 -0.84375 C 3.09375 -0.925781 3.132812 -1.03125 3.1875 -1.15625 C 3.238281 -1.28125 3.289062 -1.398438 3.34375 -1.515625 C 3.40625 -1.640625 3.460938 -1.753906 3.515625 -1.859375 C 3.535156 -1.921875 3.535156 -1.960938 3.515625 -1.984375 C 3.492188 -2.015625 3.46875 -2.015625 3.4375 -1.984375 C 2.988281 -1.472656 2.585938 -1.054688 2.234375 -0.734375 C 1.878906 -0.421875 1.5625 -0.191406 1.28125 -0.046875 C 1.007812 0.0976562 0.75 0.171875 0.5 0.171875 Z M 1.609375 -0.96875 C 1.765625 -0.96875 2.003906 -1.101562 2.328125 -1.375 C 2.660156 -1.65625 3.007812 -2.019531 3.375 -2.46875 C 3.65625 -2.800781 3.878906 -3.101562 4.046875 -3.375 C 4.210938 -3.65625 4.296875 -3.859375 4.296875 -3.984375 C 4.296875 -4.054688 4.222656 -4.15625 4.078125 -4.28125 C 4.003906 -4.332031 3.925781 -4.375 3.84375 -4.40625 C 3.769531 -4.445312 3.707031 -4.46875 3.65625 -4.46875 C 3.53125 -4.46875 3.347656 -4.390625 3.109375 -4.234375 C 2.867188 -4.085938 2.644531 -3.914062 2.4375 -3.71875 C 2.238281 -3.507812 2.046875 -3.265625 1.859375 -2.984375 C 1.679688 -2.710938 1.53125 -2.429688 1.40625 -2.140625 C 1.289062 -1.859375 1.234375 -1.613281 1.234375 -1.40625 C 1.234375 -1.28125 1.265625 -1.175781 1.328125 -1.09375 C 1.398438 -1.007812 1.492188 -0.96875 1.609375 -0.96875 Z M 1.609375 -0.96875 "/></g></g></g><g fill="#e7d49e" fill-opacity="1"><g transform="translate(204.93842, 92.113797)"><g><path d="M 1.25 0.1875 C 1.1875 0.1875 1.113281 0.160156 1.03125 0.109375 C 0.945312 0.0546875 0.863281 -0.00390625 0.78125 -0.078125 C 0.707031 -0.160156 0.65625 -0.253906 0.625 -0.359375 C 0.59375 -0.472656 0.601562 -0.582031 0.65625 -0.6875 L 1.984375 -3.96875 C 2.078125 -4.226562 2.050781 -4.359375 1.90625 -4.359375 C 1.832031 -4.359375 1.742188 -4.351562 1.640625 -4.34375 C 1.535156 -4.332031 1.421875 -4.289062 1.296875 -4.21875 C 1.171875 -4.144531 1.046875 -4.03125 0.921875 -3.875 C 0.890625 -3.832031 0.84375 -3.8125 0.78125 -3.8125 C 0.726562 -3.820312 0.695312 -3.863281 0.6875 -3.9375 C 0.6875 -4 0.707031 -4.070312 0.75 -4.15625 C 0.800781 -4.25 0.859375 -4.34375 0.921875 -4.4375 C 0.992188 -4.539062 1.050781 -4.613281 1.09375 -4.65625 C 1.269531 -4.851562 1.488281 -5.015625 1.75 -5.140625 C 2.007812 -5.265625 2.316406 -5.332031 2.671875 -5.34375 C 2.835938 -5.34375 2.972656 -5.296875 3.078125 -5.203125 C 3.179688 -5.117188 3.242188 -5.003906 3.265625 -4.859375 C 3.296875 -4.722656 3.285156 -4.582031 3.234375 -4.4375 L 2.515625 -2.640625 C 2.492188 -2.578125 2.515625 -2.539062 2.578125 -2.53125 C 2.640625 -2.53125 2.679688 -2.550781 2.703125 -2.59375 C 3.015625 -3.132812 3.328125 -3.609375 3.640625 -4.015625 C 3.953125 -4.429688 4.265625 -4.753906 4.578125 -4.984375 C 4.898438 -5.222656 5.21875 -5.34375 5.53125 -5.34375 C 5.8125 -5.34375 6.019531 -5.257812 6.15625 -5.09375 C 6.289062 -4.925781 6.367188 -4.71875 6.390625 -4.46875 C 6.410156 -4.226562 6.363281 -3.984375 6.25 -3.734375 L 5.234375 -1.359375 C 5.128906 -1.085938 5.148438 -0.953125 5.296875 -0.953125 C 5.367188 -0.953125 5.457031 -0.976562 5.5625 -1.03125 C 5.675781 -1.09375 5.789062 -1.164062 5.90625 -1.25 C 6.03125 -1.332031 6.132812 -1.410156 6.21875 -1.484375 C 6.3125 -1.554688 6.378906 -1.613281 6.421875 -1.65625 C 6.453125 -1.695312 6.484375 -1.726562 6.515625 -1.75 C 6.546875 -1.769531 6.578125 -1.78125 6.609375 -1.78125 C 6.628906 -1.78125 6.648438 -1.769531 6.671875 -1.75 C 6.703125 -1.726562 6.71875 -1.695312 6.71875 -1.65625 C 6.71875 -1.519531 6.675781 -1.398438 6.59375 -1.296875 C 6.351562 -1.015625 6.085938 -0.765625 5.796875 -0.546875 C 5.515625 -0.328125 5.222656 -0.148438 4.921875 -0.015625 C 4.617188 0.109375 4.328125 0.171875 4.046875 0.171875 C 3.941406 0.171875 3.835938 0.132812 3.734375 0.0625 C 3.640625 0 3.566406 -0.0703125 3.515625 -0.15625 C 3.472656 -0.25 3.472656 -0.351562 3.515625 -0.46875 C 3.773438 -1.050781 4.039062 -1.632812 4.3125 -2.21875 C 4.59375 -2.800781 4.847656 -3.394531 5.078125 -4 C 5.148438 -4.21875 5.175781 -4.375 5.15625 -4.46875 C 5.132812 -4.5625 5.078125 -4.609375 4.984375 -4.609375 C 4.867188 -4.617188 4.75 -4.566406 4.625 -4.453125 C 4.5 -4.335938 4.363281 -4.1875 4.21875 -4 C 4.070312 -3.820312 3.914062 -3.625 3.75 -3.40625 C 3.664062 -3.300781 3.550781 -3.132812 3.40625 -2.90625 C 3.269531 -2.6875 3.113281 -2.4375 2.9375 -2.15625 C 2.757812 -1.875 2.582031 -1.585938 2.40625 -1.296875 C 2.226562 -1.003906 2.066406 -0.734375 1.921875 -0.484375 C 1.804688 -0.285156 1.691406 -0.125 1.578125 0 C 1.472656 0.125 1.363281 0.1875 1.25 0.1875 Z M 1.25 0.1875 "/></g></g></g><g fill="#e7d49e" fill-opacity="1"><g transform="translate(212.123216, 92.113797)"><g><path d="M 3.96875 0.21875 C 3.789062 0.21875 3.640625 0.164062 3.515625 0.0625 C 3.398438 -0.0390625 3.300781 -0.195312 3.21875 -0.40625 L 2.71875 -1.90625 C 2.675781 -2.019531 2.617188 -2.113281 2.546875 -2.1875 C 2.484375 -2.257812 2.410156 -2.296875 2.328125 -2.296875 C 2.273438 -2.296875 2.222656 -2.253906 2.171875 -2.171875 C 2.128906 -2.097656 2.085938 -2.007812 2.046875 -1.90625 C 2.003906 -1.8125 1.957031 -1.691406 1.90625 -1.546875 C 1.851562 -1.410156 1.796875 -1.265625 1.734375 -1.109375 C 1.671875 -0.953125 1.613281 -0.804688 1.5625 -0.671875 C 1.507812 -0.535156 1.460938 -0.410156 1.421875 -0.296875 C 1.367188 -0.179688 1.289062 -0.0820312 1.1875 0 C 1.082031 0.0820312 0.953125 0.125 0.796875 0.125 C 0.691406 0.125 0.578125 0.078125 0.453125 -0.015625 C 0.328125 -0.109375 0.265625 -0.238281 0.265625 -0.40625 C 0.265625 -0.476562 0.269531 -0.554688 0.28125 -0.640625 C 0.300781 -0.722656 0.328125 -0.8125 0.359375 -0.90625 L 2.28125 -6.828125 C 2.320312 -6.960938 2.351562 -7.085938 2.375 -7.203125 C 2.40625 -7.328125 2.421875 -7.445312 2.421875 -7.5625 C 2.421875 -7.71875 2.328125 -7.832031 2.140625 -7.90625 C 2.066406 -7.9375 2 -7.960938 1.9375 -7.984375 C 1.875 -8.015625 1.84375 -8.050781 1.84375 -8.09375 C 1.84375 -8.132812 1.859375 -8.171875 1.890625 -8.203125 C 1.921875 -8.242188 1.988281 -8.28125 2.09375 -8.3125 C 2.175781 -8.351562 2.304688 -8.398438 2.484375 -8.453125 C 2.660156 -8.515625 2.84375 -8.570312 3.03125 -8.625 C 3.21875 -8.6875 3.390625 -8.738281 3.546875 -8.78125 C 3.703125 -8.820312 3.8125 -8.84375 3.875 -8.84375 C 3.9375 -8.84375 4 -8.832031 4.0625 -8.8125 C 4.125 -8.800781 4.15625 -8.753906 4.15625 -8.671875 C 4.15625 -8.585938 4.144531 -8.515625 4.125 -8.453125 C 4.113281 -8.398438 4.097656 -8.332031 4.078125 -8.25 L 2.46875 -3.59375 C 2.445312 -3.507812 2.457031 -3.46875 2.5 -3.46875 C 2.539062 -3.476562 2.578125 -3.503906 2.609375 -3.546875 C 2.847656 -3.890625 3.113281 -4.191406 3.40625 -4.453125 C 3.695312 -4.722656 4 -4.9375 4.3125 -5.09375 C 4.632812 -5.257812 4.957031 -5.34375 5.28125 -5.34375 C 5.5 -5.34375 5.6875 -5.289062 5.84375 -5.1875 C 6.007812 -5.082031 6.09375 -4.921875 6.09375 -4.703125 C 6.09375 -4.503906 6.019531 -4.296875 5.875 -4.078125 C 5.726562 -3.859375 5.539062 -3.648438 5.3125 -3.453125 C 5.09375 -3.253906 4.851562 -3.078125 4.59375 -2.921875 C 4.332031 -2.773438 4.082031 -2.660156 3.84375 -2.578125 C 3.757812 -2.554688 3.742188 -2.492188 3.796875 -2.390625 L 4.296875 -1.21875 C 4.335938 -1.15625 4.382812 -1.082031 4.4375 -1 C 4.5 -0.925781 4.570312 -0.890625 4.65625 -0.890625 C 4.789062 -0.890625 4.945312 -0.957031 5.125 -1.09375 C 5.300781 -1.238281 5.441406 -1.398438 5.546875 -1.578125 C 5.585938 -1.628906 5.617188 -1.664062 5.640625 -1.6875 C 5.671875 -1.707031 5.703125 -1.71875 5.734375 -1.71875 C 5.765625 -1.71875 5.785156 -1.695312 5.796875 -1.65625 C 5.816406 -1.625 5.828125 -1.59375 5.828125 -1.5625 C 5.828125 -1.394531 5.757812 -1.207031 5.625 -1 C 5.5 -0.800781 5.335938 -0.609375 5.140625 -0.421875 C 4.941406 -0.242188 4.738281 -0.09375 4.53125 0.03125 C 4.320312 0.15625 4.132812 0.21875 3.96875 0.21875 Z M 2.765625 -2.59375 C 2.992188 -2.59375 3.226562 -2.648438 3.46875 -2.765625 C 3.707031 -2.890625 3.929688 -3.035156 4.140625 -3.203125 C 4.347656 -3.367188 4.515625 -3.539062 4.640625 -3.71875 C 4.765625 -3.90625 4.828125 -4.0625 4.828125 -4.1875 C 4.828125 -4.3125 4.785156 -4.398438 4.703125 -4.453125 C 4.628906 -4.503906 4.53125 -4.53125 4.40625 -4.53125 C 4.238281 -4.53125 4.054688 -4.457031 3.859375 -4.3125 C 3.660156 -4.164062 3.46875 -3.988281 3.28125 -3.78125 C 3.09375 -3.570312 2.9375 -3.375 2.8125 -3.1875 C 2.6875 -3 2.625 -2.863281 2.625 -2.78125 C 2.625 -2.738281 2.632812 -2.695312 2.65625 -2.65625 C 2.6875 -2.613281 2.722656 -2.59375 2.765625 -2.59375 Z M 2.765625 -2.59375 "/></g></g></g><g fill="#e7d49e" fill-opacity="1"><g transform="translate(218.470828, 92.113797)"><g><path d="M 0.984375 0.171875 C 0.804688 0.171875 0.648438 0.109375 0.515625 -0.015625 C 0.390625 -0.148438 0.328125 -0.28125 0.328125 -0.40625 C 0.328125 -0.445312 0.328125 -0.488281 0.328125 -0.53125 C 0.335938 -0.570312 0.351562 -0.613281 0.375 -0.65625 C 0.644531 -1.238281 0.890625 -1.804688 1.109375 -2.359375 C 1.328125 -2.910156 1.53125 -3.425781 1.71875 -3.90625 C 1.75 -3.96875 1.734375 -4 1.671875 -4 C 1.617188 -4 1.539062 -3.976562 1.4375 -3.9375 C 1.332031 -3.894531 1.226562 -3.84375 1.125 -3.78125 C 1.019531 -3.71875 0.914062 -3.65625 0.8125 -3.59375 C 0.726562 -3.539062 0.660156 -3.523438 0.609375 -3.546875 C 0.566406 -3.578125 0.546875 -3.625 0.546875 -3.6875 C 0.546875 -3.738281 0.59375 -3.816406 0.6875 -3.921875 C 0.789062 -4.035156 0.914062 -4.15625 1.0625 -4.28125 C 1.21875 -4.40625 1.390625 -4.535156 1.578125 -4.671875 C 1.773438 -4.804688 1.96875 -4.929688 2.15625 -5.046875 C 2.351562 -5.160156 2.53125 -5.25 2.6875 -5.3125 C 2.789062 -5.351562 2.894531 -5.34375 3 -5.28125 C 3.113281 -5.226562 3.203125 -5.148438 3.265625 -5.046875 C 3.335938 -4.953125 3.359375 -4.867188 3.328125 -4.796875 L 1.890625 -1.28125 C 1.859375 -1.238281 1.835938 -1.195312 1.828125 -1.15625 C 1.828125 -1.113281 1.828125 -1.070312 1.828125 -1.03125 C 1.828125 -0.988281 1.835938 -0.957031 1.859375 -0.9375 C 1.890625 -0.925781 1.921875 -0.921875 1.953125 -0.921875 C 2.046875 -0.921875 2.164062 -0.972656 2.3125 -1.078125 C 2.46875 -1.179688 2.628906 -1.300781 2.796875 -1.4375 C 2.972656 -1.582031 3.128906 -1.722656 3.265625 -1.859375 C 3.273438 -1.890625 3.289062 -1.90625 3.3125 -1.90625 C 3.34375 -1.90625 3.367188 -1.890625 3.390625 -1.859375 C 3.421875 -1.828125 3.4375 -1.796875 3.4375 -1.765625 C 3.4375 -1.609375 3.347656 -1.425781 3.171875 -1.21875 C 3.003906 -1.007812 2.789062 -0.796875 2.53125 -0.578125 C 2.28125 -0.367188 2.015625 -0.191406 1.734375 -0.046875 C 1.453125 0.0976562 1.203125 0.171875 0.984375 0.171875 Z M 3.359375 -6.328125 C 3.191406 -6.328125 3.054688 -6.390625 2.953125 -6.515625 C 2.847656 -6.648438 2.796875 -6.796875 2.796875 -6.953125 C 2.796875 -7.210938 2.882812 -7.441406 3.0625 -7.640625 C 3.238281 -7.835938 3.460938 -7.9375 3.734375 -7.9375 C 3.898438 -7.9375 4.035156 -7.863281 4.140625 -7.71875 C 4.242188 -7.570312 4.296875 -7.414062 4.296875 -7.25 C 4.296875 -7.007812 4.203125 -6.796875 4.015625 -6.609375 C 3.835938 -6.421875 3.617188 -6.328125 3.359375 -6.328125 Z M 3.359375 -6.328125 "/></g></g></g><g fill="#e7d49e" fill-opacity="1"><g transform="translate(222.456826, 92.113797)"><g><path d="M 1.25 0.1875 C 1.1875 0.1875 1.113281 0.160156 1.03125 0.109375 C 0.945312 0.0546875 0.863281 -0.00390625 0.78125 -0.078125 C 0.707031 -0.160156 0.65625 -0.253906 0.625 -0.359375 C 0.59375 -0.472656 0.601562 -0.582031 0.65625 -0.6875 L 1.984375 -3.96875 C 2.078125 -4.226562 2.050781 -4.359375 1.90625 -4.359375 C 1.832031 -4.359375 1.742188 -4.351562 1.640625 -4.34375 C 1.535156 -4.332031 1.421875 -4.289062 1.296875 -4.21875 C 1.171875 -4.144531 1.046875 -4.03125 0.921875 -3.875 C 0.890625 -3.832031 0.84375 -3.8125 0.78125 -3.8125 C 0.726562 -3.820312 0.695312 -3.863281 0.6875 -3.9375 C 0.6875 -4 0.707031 -4.070312 0.75 -4.15625 C 0.800781 -4.25 0.859375 -4.34375 0.921875 -4.4375 C 0.992188 -4.539062 1.050781 -4.613281 1.09375 -4.65625 C 1.269531 -4.851562 1.488281 -5.015625 1.75 -5.140625 C 2.007812 -5.265625 2.316406 -5.332031 2.671875 -5.34375 C 2.835938 -5.34375 2.972656 -5.296875 3.078125 -5.203125 C 3.179688 -5.117188 3.242188 -5.003906 3.265625 -4.859375 C 3.296875 -4.722656 3.285156 -4.582031 3.234375 -4.4375 L 2.515625 -2.640625 C 2.492188 -2.578125 2.515625 -2.539062 2.578125 -2.53125 C 2.640625 -2.53125 2.679688 -2.550781 2.703125 -2.59375 C 3.015625 -3.132812 3.328125 -3.609375 3.640625 -4.015625 C 3.953125 -4.429688 4.265625 -4.753906 4.578125 -4.984375 C 4.898438 -5.222656 5.21875 -5.34375 5.53125 -5.34375 C 5.8125 -5.34375 6.019531 -5.257812 6.15625 -5.09375 C 6.289062 -4.925781 6.367188 -4.71875 6.390625 -4.46875 C 6.410156 -4.226562 6.363281 -3.984375 6.25 -3.734375 L 5.234375 -1.359375 C 5.128906 -1.085938 5.148438 -0.953125 5.296875 -0.953125 C 5.367188 -0.953125 5.457031 -0.976562 5.5625 -1.03125 C 5.675781 -1.09375 5.789062 -1.164062 5.90625 -1.25 C 6.03125 -1.332031 6.132812 -1.410156 6.21875 -1.484375 C 6.3125 -1.554688 6.378906 -1.613281 6.421875 -1.65625 C 6.453125 -1.695312 6.484375 -1.726562 6.515625 -1.75 C 6.546875 -1.769531 6.578125 -1.78125 6.609375 -1.78125 C 6.628906 -1.78125 6.648438 -1.769531 6.671875 -1.75 C 6.703125 -1.726562 6.71875 -1.695312 6.71875 -1.65625 C 6.71875 -1.519531 6.675781 -1.398438 6.59375 -1.296875 C 6.351562 -1.015625 6.085938 -0.765625 5.796875 -0.546875 C 5.515625 -0.328125 5.222656 -0.148438 4.921875 -0.015625 C 4.617188 0.109375 4.328125 0.171875 4.046875 0.171875 C 3.941406 0.171875 3.835938 0.132812 3.734375 0.0625 C 3.640625 0 3.566406 -0.0703125 3.515625 -0.15625 C 3.472656 -0.25 3.472656 -0.351562 3.515625 -0.46875 C 3.773438 -1.050781 4.039062 -1.632812 4.3125 -2.21875 C 4.59375 -2.800781 4.847656 -3.394531 5.078125 -4 C 5.148438 -4.21875 5.175781 -4.375 5.15625 -4.46875 C 5.132812 -4.5625 5.078125 -4.609375 4.984375 -4.609375 C 4.867188 -4.617188 4.75 -4.566406 4.625 -4.453125 C 4.5 -4.335938 4.363281 -4.1875 4.21875 -4 C 4.070312 -3.820312 3.914062 -3.625 3.75 -3.40625 C 3.664062 -3.300781 3.550781 -3.132812 3.40625 -2.90625 C 3.269531 -2.6875 3.113281 -2.4375 2.9375 -2.15625 C 2.757812 -1.875 2.582031 -1.585938 2.40625 -1.296875 C 2.226562 -1.003906 2.066406 -0.734375 1.921875 -0.484375 C 1.804688 -0.285156 1.691406 -0.125 1.578125 0 C 1.472656 0.125 1.363281 0.1875 1.25 0.1875 Z M 1.25 0.1875 "/></g></g></g><g fill="#e7d49e" fill-opacity="1"><g transform="translate(229.641623, 92.113797)"><g><path d="M 1.46875 3.625 C 0.96875 3.625 0.507812 3.566406 0.09375 3.453125 C -0.3125 3.335938 -0.632812 3.179688 -0.875 2.984375 C -1.125 2.785156 -1.25 2.554688 -1.25 2.296875 C -1.25 2.078125 -1.128906 1.875 -0.890625 1.6875 C -0.660156 1.507812 -0.363281 1.34375 0 1.1875 C 0.363281 1.039062 0.753906 0.90625 1.171875 0.78125 C 1.253906 0.757812 1.265625 0.722656 1.203125 0.671875 C 1.023438 0.554688 0.867188 0.429688 0.734375 0.296875 C 0.609375 0.160156 0.546875 0.0078125 0.546875 -0.15625 C 0.546875 -0.320312 0.628906 -0.472656 0.796875 -0.609375 C 0.972656 -0.742188 1.179688 -0.882812 1.421875 -1.03125 C 1.472656 -1.070312 1.507812 -1.101562 1.53125 -1.125 C 1.550781 -1.144531 1.5625 -1.164062 1.5625 -1.1875 C 1.5625 -1.207031 1.523438 -1.238281 1.453125 -1.28125 C 1.296875 -1.351562 1.148438 -1.445312 1.015625 -1.5625 C 0.890625 -1.6875 0.785156 -1.832031 0.703125 -2 C 0.628906 -2.175781 0.59375 -2.363281 0.59375 -2.5625 C 0.59375 -2.832031 0.65625 -3.125 0.78125 -3.4375 C 0.90625 -3.757812 1.082031 -4.0625 1.3125 -4.34375 C 1.539062 -4.632812 1.820312 -4.875 2.15625 -5.0625 C 2.488281 -5.25 2.863281 -5.34375 3.28125 -5.34375 C 3.4375 -5.34375 3.578125 -5.320312 3.703125 -5.28125 C 3.828125 -5.238281 3.9375 -5.191406 4.03125 -5.140625 C 4.132812 -5.097656 4.234375 -5.054688 4.328125 -5.015625 C 4.421875 -4.972656 4.492188 -4.953125 4.546875 -4.953125 C 4.679688 -4.953125 4.816406 -4.960938 4.953125 -4.984375 C 5.097656 -5.015625 5.238281 -5.046875 5.375 -5.078125 C 5.519531 -5.117188 5.644531 -5.140625 5.75 -5.140625 C 5.800781 -5.140625 5.863281 -5.113281 5.9375 -5.0625 C 6.007812 -5.019531 6.046875 -4.9375 6.046875 -4.8125 C 6.046875 -4.664062 6.015625 -4.546875 5.953125 -4.453125 C 5.898438 -4.359375 5.832031 -4.3125 5.75 -4.3125 C 5.675781 -4.3125 5.582031 -4.320312 5.46875 -4.34375 C 5.363281 -4.363281 5.253906 -4.378906 5.140625 -4.390625 C 5.035156 -4.410156 4.941406 -4.421875 4.859375 -4.421875 C 4.828125 -4.421875 4.789062 -4.410156 4.75 -4.390625 C 4.71875 -4.378906 4.707031 -4.34375 4.71875 -4.28125 C 4.738281 -4.21875 4.75 -4.15625 4.75 -4.09375 C 4.757812 -4.03125 4.765625 -3.96875 4.765625 -3.90625 C 4.765625 -3.570312 4.695312 -3.238281 4.5625 -2.90625 C 4.425781 -2.570312 4.242188 -2.269531 4.015625 -2 C 3.785156 -1.726562 3.519531 -1.507812 3.21875 -1.34375 C 2.914062 -1.1875 2.59375 -1.109375 2.25 -1.109375 C 2.175781 -1.109375 2.101562 -1.101562 2.03125 -1.09375 C 1.957031 -1.09375 1.90625 -1.078125 1.875 -1.046875 C 1.78125 -0.972656 1.734375 -0.882812 1.734375 -0.78125 C 1.734375 -0.664062 1.773438 -0.5625 1.859375 -0.46875 C 1.953125 -0.375 2.082031 -0.269531 2.25 -0.15625 C 2.40625 -0.0507812 2.582031 0.0625 2.78125 0.1875 C 2.988281 0.320312 3.195312 0.453125 3.40625 0.578125 C 3.613281 0.710938 3.800781 0.832031 3.96875 0.9375 C 4.15625 1.070312 4.296875 1.207031 4.390625 1.34375 C 4.492188 1.488281 4.546875 1.640625 4.546875 1.796875 C 4.546875 2.035156 4.453125 2.265625 4.265625 2.484375 C 4.085938 2.703125 3.847656 2.894531 3.546875 3.0625 C 3.242188 3.238281 2.914062 3.375 2.5625 3.46875 C 2.207031 3.570312 1.84375 3.625 1.46875 3.625 Z M 1.96875 3.203125 C 2.21875 3.203125 2.441406 3.160156 2.640625 3.078125 C 2.847656 3.003906 3.007812 2.90625 3.125 2.78125 C 3.25 2.65625 3.3125 2.515625 3.3125 2.359375 C 3.3125 2.265625 3.273438 2.160156 3.203125 2.046875 C 3.128906 1.929688 3.03125 1.832031 2.90625 1.75 C 2.769531 1.644531 2.59375 1.523438 2.375 1.390625 C 2.15625 1.265625 1.976562 1.171875 1.84375 1.109375 C 1.757812 1.054688 1.675781 1.03125 1.59375 1.03125 C 1.550781 1.03125 1.507812 1.035156 1.46875 1.046875 C 1.425781 1.054688 1.382812 1.070312 1.34375 1.09375 C 0.90625 1.21875 0.566406 1.363281 0.328125 1.53125 C 0.0859375 1.695312 -0.03125 1.925781 -0.03125 2.21875 C -0.03125 2.382812 0.0507812 2.539062 0.21875 2.6875 C 0.382812 2.84375 0.613281 2.96875 0.90625 3.0625 C 1.207031 3.15625 1.5625 3.203125 1.96875 3.203125 Z M 2.09375 -1.53125 C 2.226562 -1.53125 2.375 -1.597656 2.53125 -1.734375 C 2.695312 -1.867188 2.847656 -2.050781 2.984375 -2.28125 C 3.128906 -2.507812 3.257812 -2.753906 3.375 -3.015625 C 3.488281 -3.285156 3.578125 -3.539062 3.640625 -3.78125 C 3.710938 -4.03125 3.75 -4.238281 3.75 -4.40625 C 3.75 -4.550781 3.710938 -4.675781 3.640625 -4.78125 C 3.578125 -4.894531 3.492188 -4.953125 3.390625 -4.953125 C 3.242188 -4.953125 3.09375 -4.878906 2.9375 -4.734375 C 2.789062 -4.597656 2.644531 -4.421875 2.5 -4.203125 C 2.351562 -3.984375 2.222656 -3.742188 2.109375 -3.484375 C 1.992188 -3.222656 1.898438 -2.972656 1.828125 -2.734375 C 1.753906 -2.492188 1.71875 -2.28125 1.71875 -2.09375 C 1.71875 -1.925781 1.753906 -1.789062 1.828125 -1.6875 C 1.898438 -1.59375 1.988281 -1.539062 2.09375 -1.53125 Z M 2.09375 -1.53125 "/></g></g></g><g clip-path="url(#e3f067fe07)"><g clip-path="url(#c3ffe50fc6)"><path fill="url(#f116741a66)" d="M 38.109375 37.757812 L 38.109375 104.246094 L 91.171875 104.246094 L 91.171875 37.757812 Z M 38.109375 37.757812 " fill-rule="nonzero"/></g></g></svg>